<svg xmlns="http://www.w3.org/2000/svg" xmlns:xlink="http://www.w3.org/1999/xlink" width="500" zoomAndPan="magnify" viewBox="0 0 375 374.999991" height="500" preserveAspectRatio="xMidYMid meet" version="1.0"><defs><clipPath id="cd626b4930"><path d="M 156 46 L 170 46 L 170 63 L 156 63 Z M 156 46 " clip-rule="nonzero"/></clipPath><clipPath id="a7d6b8fc02"><path d="M 155.839844 41.3125 L 179.078125 40.554688 L 179.859375 64.542969 L 156.625 65.300781 Z M 155.839844 41.3125 " clip-rule="nonzero"/></clipPath><clipPath id="5b4e5d059f"><path d="M 155.839844 41.3125 L 179.078125 40.554688 L 179.859375 64.542969 L 156.625 65.300781 Z M 155.839844 41.3125 " clip-rule="nonzero"/></clipPath><clipPath id="18166a7dc6"><path d="M 169 40 L 180 40 L 180 54 L 169 54 Z M 169 40 " clip-rule="nonzero"/></clipPath><clipPath id="6f4346c09a"><path d="M 155.839844 41.3125 L 179.078125 40.554688 L 179.859375 64.542969 L 156.625 65.300781 Z M 155.839844 41.3125 " clip-rule="nonzero"/></clipPath><clipPath id="b66188d165"><path d="M 155.839844 41.3125 L 179.078125 40.554688 L 179.859375 64.542969 L 156.625 65.300781 Z M 155.839844 41.3125 " clip-rule="nonzero"/></clipPath><clipPath id="a4d6d28698"><path d="M 168 55 L 177 55 L 177 65 L 168 65 Z M 168 55 " clip-rule="nonzero"/></clipPath><clipPath id="05376f4e2a"><path d="M 155.839844 41.3125 L 179.078125 40.554688 L 179.859375 64.542969 L 156.625 65.300781 Z M 155.839844 41.3125 " clip-rule="nonzero"/></clipPath><clipPath id="c5a34a38d5"><path d="M 155.839844 41.3125 L 179.078125 40.554688 L 179.859375 64.542969 L 156.625 65.300781 Z M 155.839844 41.3125 " clip-rule="nonzero"/></clipPath><clipPath id="e7fb35d9c6"><path d="M 324 123 L 337 123 L 337 139 L 324 139 Z M 324 123 " clip-rule="nonzero"/></clipPath><clipPath id="b3cc1d3465"><path d="M 310.980469 125.785156 L 333.117188 118.675781 L 340.453125 141.527344 L 318.316406 148.632812 Z M 310.980469 125.785156 " clip-rule="nonzero"/></clipPath><clipPath id="05f287de04"><path d="M 340.550781 141.640625 L 318.414062 148.75 L 311.078125 125.898438 L 333.214844 118.789062 Z M 340.550781 141.640625 " clip-rule="nonzero"/></clipPath><clipPath id="cae3530f83"><path d="M 316 135 L 326 135 L 326 148 L 316 148 Z M 316 135 " clip-rule="nonzero"/></clipPath><clipPath id="21493dd954"><path d="M 310.980469 125.785156 L 333.117188 118.675781 L 340.453125 141.527344 L 318.316406 148.632812 Z M 310.980469 125.785156 " clip-rule="nonzero"/></clipPath><clipPath id="eb3129b110"><path d="M 340.550781 141.640625 L 318.414062 148.75 L 311.078125 125.898438 L 333.214844 118.789062 Z M 340.550781 141.640625 " clip-rule="nonzero"/></clipPath><clipPath id="52d99a176c"><path d="M 315 123 L 324 123 L 324 133 L 315 133 Z M 315 123 " clip-rule="nonzero"/></clipPath><clipPath id="94e69f2d80"><path d="M 310.980469 125.785156 L 333.117188 118.675781 L 340.453125 141.527344 L 318.316406 148.632812 Z M 310.980469 125.785156 " clip-rule="nonzero"/></clipPath><clipPath id="a49e80eda2"><path d="M 340.550781 141.640625 L 318.414062 148.75 L 311.078125 125.898438 L 333.214844 118.789062 Z M 340.550781 141.640625 " clip-rule="nonzero"/></clipPath><clipPath id="92959e7414"><path d="M 56.554688 173 L 120 173 L 120 235 L 56.554688 235 Z M 56.554688 173 " clip-rule="nonzero"/></clipPath><clipPath id="9300797d5b"><path d="M 70 109 L 303.304688 109 L 303.304688 318 L 70 318 Z M 70 109 " clip-rule="nonzero"/></clipPath></defs><g clip-path="url(#cd626b4930)"><g clip-path="url(#a7d6b8fc02)"><g clip-path="url(#5b4e5d059f)"><path fill="#efecec" d="M 169.027344 55.109375 C 169.039062 55.574219 168.679688 55.738281 168.308594 55.925781 C 167.59375 56.285156 166.867188 56.636719 166.199219 57.070312 C 165.125 57.769531 164.589844 58.875 164.203125 60.050781 C 164.027344 60.582031 163.910156 61.132812 163.785156 61.683594 C 163.703125 62.050781 163.488281 62.214844 163.117188 62.144531 C 162.234375 61.980469 161.992188 61.699219 161.96875 60.746094 C 161.90625 58.425781 160.015625 56.242188 158.210938 55.675781 C 157.90625 55.578125 157.566406 55.585938 157.246094 55.574219 C 156.753906 55.554688 156.371094 55.285156 156.320312 54.898438 C 156.269531 54.511719 156.542969 54.125 157.046875 54.042969 C 158.234375 53.847656 159.308594 53.429688 160.195312 52.601562 C 161.6875 51.214844 162.769531 49.613281 162.875 47.5 C 162.886719 47.261719 162.875 47.011719 162.957031 46.796875 C 163.019531 46.621094 163.207031 46.492188 163.339844 46.339844 C 163.472656 46.476562 163.691406 46.589844 163.722656 46.746094 C 163.933594 47.742188 164.074219 48.753906 164.296875 49.75 C 164.628906 51.238281 165.132812 52.660156 166.546875 53.488281 C 167.066406 53.789062 167.671875 53.949219 168.238281 54.171875 C 168.660156 54.335938 169.023438 54.546875 169.027344 55.109375 Z M 163.230469 50.886719 C 162.367188 52.496094 161.308594 53.796875 159.796875 54.738281 C 161.339844 55.648438 162.390625 56.890625 163.125 58.523438 C 163.703125 56.914062 164.898438 55.964844 166.269531 55.128906 C 164.519531 54.214844 163.675781 52.746094 163.230469 50.886719 Z M 163.230469 50.886719 " fill-opacity="1" fill-rule="nonzero"/></g></g></g><g clip-path="url(#18166a7dc6)"><g clip-path="url(#6f4346c09a)"><g clip-path="url(#b66188d165)"><path fill="#efecec" d="M 174.089844 53.144531 C 173.460938 53.140625 173.109375 52.757812 173.039062 52.050781 C 172.976562 51.402344 172.917969 50.753906 172.804688 50.113281 C 172.597656 48.9375 171.785156 48.289062 170.742188 47.863281 C 170.6875 47.84375 170.628906 47.824219 170.570312 47.808594 C 170.203125 47.734375 169.914062 47.53125 169.867188 47.15625 C 169.816406 46.773438 170.09375 46.523438 170.40625 46.359375 C 171.183594 45.960938 171.886719 45.480469 172.46875 44.824219 C 173.300781 43.894531 173.773438 42.820312 173.867188 41.574219 C 173.878906 41.414062 173.890625 41.246094 173.941406 41.09375 C 173.988281 40.960938 174.097656 40.726562 174.15625 40.734375 C 174.320312 40.757812 174.554688 40.835938 174.617188 40.964844 C 174.796875 41.335938 174.910156 41.742188 175.042969 42.132812 C 175.488281 43.421875 175.988281 44.6875 177.113281 45.550781 C 177.550781 45.890625 178.0625 46.152344 178.578125 46.363281 C 178.933594 46.511719 179.25 46.660156 179.304688 47.054688 C 179.363281 47.488281 179.070312 47.746094 178.703125 47.898438 C 177.796875 48.273438 177.015625 48.828125 176.347656 49.542969 C 175.558594 50.390625 175.15625 51.449219 174.792969 52.519531 C 174.671875 52.871094 174.496094 53.128906 174.089844 53.144531 Z M 172.277344 46.800781 C 172.710938 47.285156 173.164062 47.703125 173.511719 48.195312 C 173.863281 48.695312 174.109375 49.269531 174.410156 49.832031 C 174.914062 48.679688 175.824219 47.835938 176.917969 47.109375 C 175.703125 46.292969 174.933594 45.203125 174.445312 43.796875 C 173.996094 45.164062 173.113281 46.0625 172.277344 46.800781 Z M 172.277344 46.800781 " fill-opacity="1" fill-rule="nonzero"/></g></g></g><g clip-path="url(#a4d6d28698)"><g clip-path="url(#05376f4e2a)"><g clip-path="url(#c5a34a38d5)"><path fill="#efecec" d="M 176.1875 60.339844 C 176.125 60.777344 175.902344 61.011719 175.546875 61.128906 C 174.3125 61.550781 173.542969 62.445312 173.027344 63.597656 C 172.886719 63.910156 172.753906 64.226562 172.589844 64.523438 C 172.367188 64.917969 171.84375 64.929688 171.601562 64.523438 C 171.441406 64.25 171.355469 63.921875 171.273438 63.609375 C 171.023438 62.617188 170.644531 61.710938 169.648438 61.238281 C 169.457031 61.144531 169.226562 61.097656 169.011719 61.097656 C 168.660156 61.097656 168.425781 60.921875 168.332031 60.625 C 168.226562 60.296875 168.375 60.023438 168.679688 59.835938 C 169.148438 59.546875 169.609375 59.246094 170.070312 58.953125 C 171.09375 58.308594 171.503906 57.335938 171.566406 56.175781 C 171.574219 56.058594 171.550781 55.902344 171.613281 55.832031 C 171.753906 55.679688 171.925781 55.519531 172.109375 55.476562 C 172.1875 55.457031 172.386719 55.707031 172.4375 55.867188 C 172.574219 56.304688 172.652344 56.757812 172.777344 57.199219 C 173.144531 58.492188 174.058594 59.222656 175.285156 59.636719 C 175.546875 59.726562 175.785156 59.890625 176.011719 60.050781 C 176.109375 60.117188 176.144531 60.265625 176.1875 60.339844 Z M 173.808594 60.46875 C 173.191406 59.828125 172.59375 59.210938 172.210938 58.8125 C 171.710938 59.230469 171.136719 59.710938 170.632812 60.132812 C 171.183594 60.757812 171.714844 61.363281 172.238281 61.957031 C 172.753906 61.464844 173.320312 60.929688 173.808594 60.46875 Z M 173.808594 60.46875 " fill-opacity="1" fill-rule="nonzero"/></g></g></g><g clip-path="url(#e7fb35d9c6)"><g clip-path="url(#b3cc1d3465)"><g clip-path="url(#05f287de04)"><path fill="#efecec" d="M 324.082031 131.996094 C 323.941406 131.550781 324.246094 131.296875 324.550781 131.011719 C 325.140625 130.472656 325.742188 129.9375 326.261719 129.335938 C 327.105469 128.367188 327.316406 127.160156 327.367188 125.921875 C 327.386719 125.363281 327.351562 124.796875 327.320312 124.238281 C 327.300781 123.859375 327.460938 123.644531 327.835938 123.609375 C 328.730469 123.527344 329.039062 123.726562 329.324219 124.636719 C 330.023438 126.851562 332.4375 128.433594 334.332031 128.484375 C 334.648438 128.492188 334.972656 128.390625 335.285156 128.316406 C 335.765625 128.199219 336.203125 128.351562 336.359375 128.710938 C 336.515625 129.070312 336.355469 129.515625 335.898438 129.730469 C 334.808594 130.246094 333.890625 130.945312 333.265625 131.984375 C 332.210938 133.722656 331.609375 135.5625 332.089844 137.625 C 332.144531 137.855469 332.222656 138.09375 332.203125 138.320312 C 332.1875 138.507812 332.046875 138.683594 331.960938 138.867188 C 331.796875 138.773438 331.554688 138.722656 331.480469 138.582031 C 331.003906 137.679688 330.589844 136.746094 330.105469 135.851562 C 329.375 134.507812 328.5 133.28125 326.914062 132.875 C 326.332031 132.726562 325.707031 132.738281 325.101562 132.683594 C 324.652344 132.640625 324.242188 132.539062 324.082031 131.996094 Z M 330.816406 134.464844 C 331.203125 132.683594 331.867188 131.136719 333.0625 129.820312 C 331.328125 129.367188 329.976562 128.460938 328.824219 127.09375 C 328.707031 128.800781 327.820312 130.042969 326.730469 131.21875 C 328.664062 131.617188 329.878906 132.796875 330.816406 134.464844 Z M 330.816406 134.464844 " fill-opacity="1" fill-rule="nonzero"/></g></g></g><g clip-path="url(#cae3530f83)"><g clip-path="url(#21493dd954)"><g clip-path="url(#eb3129b110)"><path fill="#efecec" d="M 319.753906 135.277344 C 320.359375 135.105469 320.804688 135.375 321.066406 136.039062 C 321.304688 136.644531 321.539062 137.253906 321.824219 137.835938 C 322.34375 138.910156 323.304688 139.3125 324.425781 139.433594 C 324.484375 139.4375 324.542969 139.441406 324.601562 139.4375 C 324.976562 139.410156 325.3125 139.527344 325.460938 139.871094 C 325.613281 140.226562 325.414062 140.546875 325.15625 140.789062 C 324.523438 141.382812 323.980469 142.039062 323.597656 142.832031 C 323.054688 143.953125 322.894531 145.117188 323.144531 146.339844 C 323.179688 146.496094 323.210938 146.660156 323.203125 146.820312 C 323.199219 146.964844 323.15625 147.214844 323.097656 147.226562 C 322.933594 147.25 322.6875 147.238281 322.589844 147.132812 C 322.316406 146.824219 322.097656 146.464844 321.859375 146.125 C 321.078125 145.007812 320.25 143.925781 318.933594 143.40625 C 318.417969 143.203125 317.851562 143.089844 317.300781 143.027344 C 316.917969 142.984375 316.574219 142.925781 316.414062 142.558594 C 316.238281 142.160156 316.445312 141.835938 316.757812 141.589844 C 317.527344 140.976562 318.125 140.226562 318.570312 139.359375 C 319.101562 138.328125 319.195312 137.199219 319.25 136.066406 C 319.269531 135.695312 319.371094 135.398438 319.753906 135.277344 Z M 323.238281 140.878906 C 322.6875 140.53125 322.136719 140.253906 321.667969 139.875 C 321.191406 139.488281 320.800781 139.003906 320.355469 138.550781 C 320.191406 139.792969 319.542969 140.859375 318.691406 141.855469 C 320.085938 142.304688 321.125 143.140625 321.980469 144.363281 C 322.035156 142.921875 322.640625 141.820312 323.238281 140.878906 Z M 323.238281 140.878906 " fill-opacity="1" fill-rule="nonzero"/></g></g></g><g clip-path="url(#52d99a176c)"><g clip-path="url(#94e69f2d80)"><g clip-path="url(#a49e80eda2)"><path fill="#efecec" d="M 315.765625 128.929688 C 315.703125 128.492188 315.851562 128.207031 316.160156 127.996094 C 317.234375 127.253906 317.730469 126.179688 317.910156 124.929688 C 317.957031 124.59375 317.996094 124.253906 318.074219 123.921875 C 318.179688 123.480469 318.679688 123.324219 319.023438 123.652344 C 319.253906 123.871094 319.425781 124.160156 319.589844 124.4375 C 320.101562 125.328125 320.714844 126.089844 321.804688 126.273438 C 322.011719 126.308594 322.25 126.292969 322.457031 126.234375 C 322.792969 126.136719 323.066406 126.242188 323.238281 126.5 C 323.429688 126.789062 323.363281 127.09375 323.121094 127.355469 C 322.75 127.761719 322.390625 128.175781 322.023438 128.585938 C 321.222656 129.488281 321.09375 130.535156 321.351562 131.667969 C 321.375 131.78125 321.441406 131.925781 321.398438 132.011719 C 321.308594 132.195312 321.183594 132.394531 321.019531 132.492188 C 320.949219 132.53125 320.6875 132.34375 320.597656 132.203125 C 320.34375 131.820312 320.148438 131.402344 319.90625 131.015625 C 319.195312 129.875 318.117188 129.421875 316.820312 129.359375 C 316.546875 129.347656 316.273438 129.253906 316.011719 129.164062 C 315.902344 129.125 315.824219 128.992188 315.765625 128.929688 Z M 318.015625 128.15625 C 318.785156 128.601562 319.53125 129.03125 320.007812 129.308594 C 320.371094 128.769531 320.792969 128.148438 321.160156 127.605469 C 320.457031 127.15625 319.78125 126.71875 319.117188 126.292969 C 318.753906 126.90625 318.359375 127.578125 318.015625 128.15625 Z M 318.015625 128.15625 " fill-opacity="1" fill-rule="nonzero"/></g></g></g><path fill="#efecec" d="M 140.644531 267.113281 C 142.890625 266.316406 145.191406 265.6875 147.527344 265.226562 L 147.8125 266.265625 C 147.84375 266.386719 147.917969 266.492188 148.019531 266.566406 C 148.125 266.636719 148.25 266.667969 148.375 266.65625 L 157.632812 265.578125 C 160.175781 259.769531 164.851562 250.976562 164.917969 250.839844 C 164.851562 248.644531 164.917969 246.796875 164.917969 244.695312 C 159.625 246.664062 149.832031 250.394531 144.710938 252.78125 C 144.597656 252.855469 144.507812 252.964844 144.457031 253.089844 C 144.40625 253.21875 144.398438 253.359375 144.429688 253.492188 C 144.429688 253.492188 144.523438 253.832031 144.644531 254.316406 C 142.140625 254.316406 134.636719 253.953125 132.832031 255.664062 C 132.550781 256.054688 132.414062 256.53125 132.441406 257.011719 C 132.332031 258.867188 133.261719 273.308594 134.742188 277.554688 C 135.511719 279.777344 137.128906 279.535156 138.234375 277.40625 C 139.511719 274.199219 140.332031 270.832031 140.671875 267.394531 C 140.671875 267.222656 140.628906 267.234375 140.644531 267.113281 Z M 139.09375 255.054688 C 140.738281 254.921875 141.25 254.949219 144.78125 254.839844 C 145.414062 257.238281 146.71875 262.167969 147.394531 264.6875 C 145.015625 265.058594 142.671875 265.601562 140.375 266.320312 C 139.660156 262.601562 139.230469 258.835938 139.09375 255.054688 Z M 139.09375 255.054688 " fill-opacity="1" fill-rule="nonzero"/><path fill="#efecec" d="M 264.632812 137.15625 C 264.972656 136.683594 264.539062 136.078125 264.175781 135.605469 C 265.207031 134.546875 266.347656 133.601562 267.585938 132.789062 C 269.667969 131.753906 271.574219 130.386719 273.230469 128.75 C 273.914062 128.035156 275.207031 126.566406 274.722656 125.707031 C 274.238281 124.84375 273.375 124.789062 272.203125 125.289062 C 272.710938 124.753906 273.125 124.140625 273.429688 123.46875 C 273.808594 122.417969 272.917969 121.570312 270.992188 122.351562 C 271.691406 121.234375 271.855469 120.0625 270.667969 119.496094 C 269.710938 119.035156 268.3125 120.128906 267.503906 120.84375 C 265.917969 122.230469 264.425781 123.722656 263.042969 125.3125 C 262.195312 123.535156 260.847656 121.488281 259.164062 122.136719 C 257.480469 122.78125 258.789062 125.679688 259.648438 127.253906 L 256.589844 129.371094 C 256.128906 129.121094 255.605469 129.003906 255.082031 129.03125 C 251.605469 129.625 235.644531 141.777344 234.027344 141.777344 C 232.789062 141.777344 215.085938 133.289062 199.785156 130.835938 C 199.753906 130.746094 199.699219 130.664062 199.625 130.601562 C 199.550781 130.539062 199.460938 130.5 199.367188 130.488281 C 196.695312 130.03125 193.988281 129.828125 191.28125 129.882812 C 191.199219 129.886719 191.121094 129.910156 191.046875 129.949219 C 190.976562 129.988281 190.914062 130.042969 190.863281 130.109375 L 189.734375 130.109375 C 189.464844 129.019531 188.46875 126.5 188.117188 125.53125 C 189.03125 124.734375 190.300781 124.332031 190.960938 123.050781 C 192.171875 120.679688 192.117188 116.558594 191.78125 113.917969 C 193.304688 112.757812 193.34375 110.898438 192.992188 109 C 192.859375 108.234375 192.441406 106.496094 191.792969 106.0625 C 191.429688 105.820312 190.664062 106.0625 190.003906 106.304688 C 189.34375 104.769531 189.34375 105.472656 189.613281 104.851562 C 189.738281 104.566406 189.808594 104.261719 189.828125 103.949219 C 190.542969 104.164062 192.023438 102.738281 191.511719 100.851562 C 191.242188 100.175781 190.914062 99.527344 190.527344 98.910156 C 190.71875 98.453125 191.121094 97.898438 189.855469 96.214844 C 189.308594 95.628906 188.601562 95.214844 187.820312 95.03125 L 187.199219 95.03125 C 186.753906 94.382812 186.097656 93.90625 185.34375 93.683594 C 184.199219 93.394531 182.992188 93.5625 181.972656 94.15625 C 181.703125 94.359375 181.488281 94.625 181.21875 94.816406 C 180.609375 94.445312 179.910156 94.25 179.199219 94.25 C 178.488281 94.25 177.789062 94.445312 177.179688 94.816406 C 176.820312 94.957031 176.496094 95.164062 176.222656 95.433594 C 175.949219 95.703125 175.734375 96.023438 175.589844 96.378906 C 174.929688 96.152344 174.226562 96.0625 173.53125 96.121094 C 172.835938 96.179688 172.160156 96.382812 171.546875 96.714844 C 169.21875 97.976562 167.480469 100.097656 166.699219 102.628906 C 166.675781 103.011719 166.675781 103.390625 166.699219 103.773438 L 166.550781 103.773438 C 164.527344 103.476562 161.957031 108.273438 164.015625 112.003906 C 164.257812 112.449219 164.570312 112.867188 164.867188 113.351562 C 165.726562 114.699219 165.390625 115.101562 167.316406 116.746094 C 167.882812 117.230469 167.976562 117.191406 168.328125 117.488281 C 168.679688 117.785156 168.542969 117.636719 168.746094 118.390625 C 168.855469 118.835938 169.050781 119.253906 169.324219 119.621094 C 169.597656 119.988281 169.941406 120.296875 170.335938 120.53125 C 170.476562 121.851562 171.039062 123.085938 171.9375 124.0625 C 172.222656 124.378906 172.554688 124.652344 172.921875 124.871094 C 173.019531 124.925781 173.132812 124.957031 173.246094 124.964844 C 173.648438 127.46875 174.148438 130.730469 174.363281 132.117188 L 173.164062 132.765625 C 171.59375 133.394531 170.070312 134.128906 168.597656 134.960938 C 168.480469 135.039062 168.398438 135.160156 168.367188 135.296875 C 166.941406 136.050781 165.59375 136.765625 164.824219 137.222656 C 154.128906 143.566406 123.75 185.394531 123.441406 187.308594 C 123.40625 187.417969 123.40625 187.535156 123.441406 187.644531 C 123.875 188.339844 124.40625 188.972656 125.015625 189.519531 C 124.828125 189.863281 124.601562 190.183594 124.34375 190.476562 C 121.648438 192.238281 117.609375 194.867188 115.4375 197.210938 C 115.289062 197.347656 115.171875 197.519531 115.109375 197.710938 C 115.042969 197.90625 115.03125 198.113281 115.070312 198.3125 C 115.109375 198.511719 115.199219 198.699219 115.332031 198.851562 C 115.464844 199.007812 115.636719 199.121094 115.832031 199.191406 C 116.234375 199.324219 116.300781 199.285156 118.929688 197.84375 C 118.207031 198.476562 117.617188 199.246094 117.191406 200.105469 C 117.015625 200.847656 117.6875 201.277344 118.539062 201.144531 C 119.015625 201.019531 119.46875 200.820312 119.886719 200.550781 C 119.640625 200.925781 119.511719 201.363281 119.511719 201.8125 C 119.511719 202.257812 119.640625 202.695312 119.886719 203.070312 C 121.230469 204.769531 124.761719 199.421875 126.621094 198.101562 C 127.375 199.054688 128.398438 201.292969 130.027344 200.699219 C 131.445312 200.175781 129.894531 197.0625 130.027344 196.160156 C 130.578125 195.632812 131.164062 195.148438 131.78125 194.707031 C 132.820312 195.476562 134.007812 196.023438 135.269531 196.308594 C 137.492188 196.308594 160.691406 172.894531 162.453125 171.023438 C 161.820312 176.976562 158.628906 202.53125 159.300781 207.503906 C 159.613281 209.753906 165.015625 210.074219 167.289062 210.195312 C 166.601562 226.363281 166.144531 250.851562 166.023438 251.109375 C 162.453125 258.800781 161.484375 260.902344 160.285156 263.234375 C 158.101562 267.410156 148.914062 282.820312 147.878906 286.324219 C 147.730469 286.875 147.714844 287.089844 148.296875 288.113281 C 146.558594 289.941406 144.949219 291.878906 143.472656 293.921875 C 142.730469 295.269531 145.910156 307.824219 148.160156 312.269531 C 148.671875 313.265625 149.507812 314.800781 150.625 314.761719 C 153.996094 314.640625 153.980469 302.542969 153.886719 299.160156 C 153.886719 299.058594 153.847656 298.957031 153.777344 298.878906 C 154.390625 297.96875 155.054688 297.09375 155.773438 296.265625 C 156.199219 296.558594 156.652344 296.820312 157.121094 297.046875 C 157.578125 297.25 158.089844 296.898438 158.464844 296.589844 C 162.953125 293.058594 187.148438 262.910156 192.332031 248.683594 C 194.691406 242.191406 197.828125 233.21875 198.71875 226.859375 C 199.261719 222.839844 199.3125 218.769531 198.867188 214.738281 C 198.867188 214.679688 198.890625 214.625 198.929688 214.585938 C 198.972656 214.542969 199.027344 214.519531 199.082031 214.519531 C 199.140625 214.519531 199.195312 214.542969 199.234375 214.585938 C 199.273438 214.625 199.296875 214.679688 199.296875 214.738281 C 199.972656 218.792969 200.105469 222.917969 199.6875 227.007812 C 198.691406 235.832031 191.726562 254.222656 188.007812 260.984375 C 191.214844 260.390625 197.734375 259.097656 200.886719 258.15625 C 211.394531 254.960938 221.09375 245.4375 221.945312 234.742188 C 222.21875 229.703125 222.21875 224.652344 221.945312 219.613281 C 221.851562 212.65625 220.949219 205.734375 219.25 198.988281 C 222.105469 197.441406 224.71875 195.621094 225.566406 193.949219 C 227.386719 190.378906 222.578125 169.835938 221.527344 164.070312 C 227.277344 164.703125 237.070312 165.851562 241.636719 162.28125 C 246.867188 158.078125 258.152344 146.25 264.632812 137.15625 Z M 153.160156 298.421875 C 150.734375 296.953125 147.339844 293.464844 146.828125 290.726562 C 147.378906 290.027344 147.960938 289.382812 148.496094 288.652344 C 150.324219 291.441406 152.601562 293.902344 155.234375 295.941406 C 154.492188 296.726562 153.800781 297.554688 153.160156 298.421875 Z M 260.253906 127.632812 C 260.324219 127.585938 260.375 127.519531 260.394531 127.4375 C 260.414062 127.355469 260.402344 127.273438 260.363281 127.199219 C 259.890625 126.324219 258.476562 123.238281 259.460938 122.890625 C 260.027344 122.675781 260.523438 123.023438 260.941406 123.496094 C 261.582031 124.304688 262.078125 125.214844 262.410156 126.191406 C 262.4375 126.269531 262.480469 126.339844 262.542969 126.394531 C 262.605469 126.449219 262.683594 126.488281 262.765625 126.503906 C 262.84375 126.519531 262.929688 126.511719 263.007812 126.480469 C 263.085938 126.453125 263.152344 126.402344 263.207031 126.339844 C 264.554688 124.84375 267.707031 121.433594 269.484375 120.519531 C 270.832031 119.816406 271.152344 121.113281 267.855469 124.128906 C 267.09375 124.707031 266.367188 125.324219 265.671875 125.972656 C 265.632812 126.027344 265.613281 126.089844 265.613281 126.15625 C 265.613281 126.222656 265.632812 126.285156 265.671875 126.339844 C 265.671875 126.6875 265.953125 127.078125 266.4375 126.714844 C 267.609375 125.6875 268.847656 124.738281 270.144531 123.871094 C 270.804688 123.402344 271.574219 123.105469 272.378906 123.011719 C 271.976562 124.25 268.21875 127.617188 267.894531 127.996094 C 267.792969 128.085938 267.730469 128.214844 267.71875 128.351562 C 267.710938 128.492188 267.757812 128.625 267.847656 128.730469 C 267.9375 128.835938 268.0625 128.898438 268.203125 128.910156 C 268.339844 128.921875 268.476562 128.878906 268.582031 128.789062 C 270.078125 127.820312 272.691406 125.558594 273.59375 125.894531 C 274.496094 126.230469 271.8125 128.734375 271.140625 129.328125 C 267.273438 132.683594 268.269531 130.527344 263.796875 135.082031 C 261.851562 132.949219 259.617188 131.097656 257.15625 129.585938 Z M 201.722656 192.066406 C 201.492188 190.207031 201.210938 188.199219 200.859375 186.109375 L 201.441406 185.34375 C 204.132812 181.878906 204.941406 176.371094 204.6875 172.046875 C 206.128906 178.363281 207.273438 184.574219 208.148438 190.746094 Z M 181.691406 145.9375 C 178.148438 143.246094 172.449219 138.597656 169.136719 135.417969 L 174.523438 132.722656 C 179.472656 137.34375 183.707031 142.675781 187.09375 148.539062 C 192.269531 158.046875 196.109375 168.222656 198.503906 178.78125 L 179.292969 151.609375 L 181.800781 146.410156 C 181.832031 146.332031 181.839844 146.242188 181.820312 146.15625 C 181.800781 146.074219 181.757812 145.996094 181.691406 145.9375 Z M 190.796875 130.664062 C 190.878906 130.8125 191.808594 132.789062 193.222656 136.253906 C 193.222656 136.402344 192.964844 139.769531 192.84375 140.953125 C 191.125 140.273438 189.503906 139.367188 188.023438 138.261719 C 188.320312 137.089844 189.652344 131.765625 189.746094 130.566406 Z M 186.015625 145.128906 C 186.109375 144.886719 186.203125 144.566406 186.3125 144.1875 L 187.214844 144.660156 C 187.726562 144.996094 187.523438 143.972656 187.980469 146.9375 C 187.980469 147.433594 188.117188 147.988281 188.144531 148.59375 C 187.523438 147.476562 186.757812 146.277344 186.027344 145.128906 Z M 185.261719 144 C 182.714844 140.390625 179.820312 137.039062 176.613281 134.003906 L 186.757812 138.410156 C 186.367188 139.339844 185.800781 142.179688 185.273438 144 Z M 195.621094 151.894531 C 194.273438 148.214844 193.234375 144.105469 192.722656 143.027344 C 192.753906 142.691406 192.753906 142.355469 192.722656 142.019531 C 192.917969 142.089844 193.121094 142.136719 193.332031 142.152344 C 193.460938 142.15625 193.585938 142.109375 193.683594 142.027344 C 193.785156 141.941406 193.851562 141.824219 193.871094 141.695312 C 193.976562 141.25 194.152344 139 194.179688 138.503906 C 198.097656 148.398438 201.371094 158.535156 203.972656 168.855469 C 196.363281 152.660156 197.535156 157.347656 195.632812 151.894531 Z M 206.761719 177.609375 C 203.691406 162.886719 198.289062 144.523438 192.144531 130.917969 C 194.402344 130.917969 196.652344 131.101562 198.878906 131.457031 C 200.027344 141.695312 199.070312 141.34375 199.835938 141.75 C 200.605469 142.152344 205.226562 144.011719 205.914062 144.296875 C 205.84375 145.332031 206.816406 174.996094 206.773438 177.609375 Z M 191.257812 106.925781 C 191.957031 108.457031 192.207031 110.160156 191.96875 111.828125 C 191.859375 112.253906 191.632812 112.640625 191.320312 112.945312 C 191.003906 113.25 190.609375 113.460938 190.179688 113.554688 C 189.75 113.648438 189.304688 113.621094 188.890625 113.476562 C 188.476562 113.328125 188.109375 113.074219 187.835938 112.730469 C 187.191406 111.378906 186.707031 109.953125 186.394531 108.488281 C 186.757812 108.015625 190.636719 107.074219 191.257812 106.925781 Z M 172.71875 120.398438 C 172.226562 120.171875 171.722656 119.976562 171.210938 119.804688 C 170.867188 119.664062 170.558594 119.445312 170.3125 119.164062 C 170.066406 118.886719 169.886719 118.554688 169.785156 118.195312 C 169.6875 117.839844 169.671875 117.460938 169.742188 117.09375 C 169.8125 116.730469 169.964844 116.382812 170.1875 116.085938 C 171.035156 115.371094 171.804688 115.414062 172.503906 116.476562 C 172.949219 117.300781 172.933594 117.367188 173.136719 117.445312 C 173.195312 117.472656 173.257812 117.484375 173.320312 117.484375 C 173.382812 117.484375 173.445312 117.46875 173.503906 117.441406 C 173.5625 117.417969 173.613281 117.378906 173.652344 117.328125 C 173.695312 117.28125 173.726562 117.226562 173.742188 117.164062 C 173.941406 116.320312 173.976562 115.445312 173.835938 114.589844 C 173.675781 113.660156 173.648438 109.539062 173.675781 109.40625 C 174.070312 109.613281 174.511719 109.710938 174.957031 109.6875 C 177.394531 109.59375 177.878906 108.339844 178.847656 107.316406 C 179.96875 107.425781 180.195312 107.964844 181.460938 107.316406 C 182.054688 106.980469 182.597656 106.5625 183.078125 106.078125 C 183.464844 106.234375 183.839844 106.425781 184.195312 106.644531 C 185.003906 107.03125 185.914062 107.152344 186.792969 106.984375 C 187.675781 106.816406 188.476562 106.371094 189.085938 105.714844 C 189.234375 105.996094 189.371094 106.28125 189.492188 106.574219 C 188.253906 106.960938 187.085938 107.546875 186.042969 108.3125 C 185.8125 108.597656 186.148438 110.132812 186.230469 110.496094 C 185.101562 110.636719 184.011719 110.988281 183.011719 111.535156 C 182.808594 110.832031 182.363281 109.527344 181.664062 109.164062 C 181.453125 109.097656 181.230469 109.097656 181.019531 109.164062 C 179.804688 109.351562 175.453125 110.65625 174.929688 111.371094 C 174.46875 111.871094 175.777344 115.722656 176.179688 116.355469 C 177.730469 118.753906 182.269531 118.054688 183.121094 115.25 C 183.328125 114.3125 183.328125 113.335938 183.121094 112.394531 C 183.511719 112.394531 184.683594 111.976562 184.816406 111.9375 C 185.746094 114.027344 186.015625 114.148438 187.09375 116.394531 C 186.945312 116.519531 186.703125 116.71875 186.5 116.855469 C 185.542969 117.488281 185.34375 117.378906 185.394531 117.648438 C 185.410156 117.703125 185.445312 117.75 185.492188 117.777344 C 185.539062 117.808594 185.597656 117.820312 185.652344 117.8125 C 186.21875 117.730469 186.769531 117.578125 187.296875 117.351562 C 187.609375 117.234375 187.871094 117.003906 188.023438 116.707031 C 188.398438 115.859375 186.3125 112.664062 185.488281 111.707031 C 185.652344 111.707031 186.027344 111.4375 186.3125 111.289062 C 186.6875 112.800781 186.945312 113.984375 188.398438 114.578125 C 188.820312 114.738281 189.269531 114.808594 189.71875 114.789062 C 190.167969 114.773438 190.605469 114.664062 191.011719 114.46875 C 191.230469 116.839844 191.1875 120.695312 190.058594 122.796875 C 189.476562 123.886719 188.050781 124.304688 187.132812 125.207031 C 186.863281 125.460938 187.039062 125.828125 187.132812 126.21875 C 188.628906 130.378906 188.65625 130.367188 188.574219 130.90625 C 188.179688 133.140625 187.625 135.347656 186.917969 137.507812 C 186.582031 137.359375 182.796875 135.351562 175.386719 132.46875 C 175.15625 130.945312 173.933594 122.820312 173.542969 121.328125 C 173.566406 120.800781 173.5 120.679688 172.71875 120.328125 Z M 182.148438 114.902344 C 181.71875 116.371094 179.683594 117.003906 178.230469 116.597656 C 176.773438 116.195312 176.679688 115.453125 175.992188 113.703125 C 175.671875 113.035156 175.449219 112.320312 175.332031 111.585938 C 175.777344 111.101562 180.640625 110.105469 181.246094 110.011719 C 182.097656 111.464844 182.417969 113.171875 182.148438 114.832031 Z M 129.4375 195.78125 C 128.925781 196.28125 129.609375 197.910156 129.71875 199.324219 C 129.71875 199.445312 129.71875 199.972656 129.636719 200.011719 C 128.898438 200.253906 128.210938 199.136719 127.792969 198.464844 C 127.375 197.789062 126.957031 196.875 126.296875 197.117188 C 124.949219 197.75 121.824219 201.898438 120.597656 202.328125 C 119.980469 201.144531 123.523438 197.761719 123.644531 197.574219 C 123.695312 197.488281 123.722656 197.386719 123.722656 197.289062 C 123.722656 197.1875 123.691406 197.085938 123.640625 197 C 123.589844 196.914062 123.511719 196.84375 123.421875 196.800781 C 123.332031 196.753906 123.230469 196.734375 123.132812 196.738281 C 122.890625 196.738281 122.726562 196.953125 122.351562 197.292969 C 121.203125 198.410156 119.890625 199.347656 118.457031 200.066406 C 119.757812 198.574219 121.144531 197.167969 122.621094 195.851562 C 122.691406 195.777344 122.742188 195.683594 122.769531 195.582031 C 122.769531 195.582031 122.484375 194.867188 121.933594 195.148438 C 121.152344 195.582031 117.351562 197.777344 116.152344 198.34375 C 115.992188 198.234375 116.085938 198.074219 116.152344 197.910156 C 118.054688 195.582031 122.230469 192.75 124.789062 190.960938 C 125.089844 190.652344 125.339844 190.296875 125.53125 189.910156 C 127.300781 191.558594 129.191406 193.074219 131.1875 194.449219 C 130.574219 194.851562 129.988281 195.296875 129.4375 195.78125 Z M 160.785156 208.027344 C 160.488281 207.839844 160.273438 207.664062 160.230469 207.421875 C 159.492188 201.925781 163.613281 170.78125 163.546875 169.554688 C 163.546875 169.480469 163.53125 169.410156 163.503906 169.34375 C 163.476562 169.277344 163.433594 169.21875 163.382812 169.167969 C 163.332031 169.117188 163.269531 169.078125 163.203125 169.050781 C 163.136719 169.027344 163.066406 169.011719 162.992188 169.015625 C 162.304688 169.015625 163.519531 169.015625 146.355469 185.449219 C 145.222656 186.515625 136.574219 194.785156 135.132812 195.339844 C 133.152344 195.191406 125.703125 189.25 124.492188 187.375 C 126.835938 182.636719 155.261719 143.621094 165.09375 137.652344 C 165.847656 137.195312 167.140625 136.480469 168.558594 135.726562 C 169.046875 136.1875 169.574219 136.609375 170.132812 136.980469 C 173.257812 139.945312 177.609375 143.636719 180.910156 146.410156 L 178.335938 151.515625 C 178.296875 151.582031 178.277344 151.660156 178.277344 151.738281 C 178.277344 151.816406 178.296875 151.894531 178.335938 151.960938 C 199.230469 181.933594 198.921875 181.597656 199.054688 181.597656 C 200.394531 188.523438 201.226562 195.539062 201.546875 202.585938 C 201.546875 204.484375 201.546875 204.324219 201.628906 204.1875 C 201.710938 204.054688 201.628906 204.28125 201.628906 204.28125 C 198.367188 207.839844 166.105469 211.152344 160.785156 208.027344 Z M 235.253906 163.398438 C 229.152344 164.246094 222.253906 162.980469 220.917969 162.925781 C 220.179688 159.335938 218.703125 155.9375 216.582031 152.945312 C 216.550781 152.898438 216.5 152.871094 216.449219 152.859375 C 216.394531 152.851562 216.339844 152.859375 216.292969 152.890625 C 216.246094 152.917969 216.214844 152.964844 216.199219 153.015625 C 216.1875 153.070312 216.191406 153.125 216.21875 153.171875 C 217 154.761719 219.613281 161.621094 220.257812 163.289062 C 220.058594 163.9375 226.347656 189.949219 224.570312 193.453125 C 222.980469 196.617188 213.726562 200.605469 210.386719 201.75 C 209.722656 194.25 208.644531 186.792969 207.152344 179.414062 C 207.609375 175.535156 207.015625 152.472656 206.84375 143.945312 C 206.835938 143.847656 206.804688 143.75 206.746094 143.667969 C 206.6875 143.589844 206.609375 143.523438 206.519531 143.488281 L 200.46875 140.941406 C 200.441406 137.738281 200.242188 134.542969 199.863281 131.363281 C 214.964844 133.976562 232.558594 142.613281 234.027344 142.625 C 236.15625 142.625 251.972656 130.5 255.246094 130.015625 C 256.699219 129.785156 262.949219 135.242188 263.675781 136.75 C 257.292969 145.667969 246.070312 157.390625 240.871094 161.445312 C 239.195312 162.566406 237.261719 163.238281 235.253906 163.398438 Z M 235.253906 163.398438 " fill-opacity="1" fill-rule="nonzero"/><path fill="#efecec" d="M 180.761719 112.207031 C 180.746094 112.117188 180.710938 112.035156 180.660156 111.957031 C 180.613281 111.882812 180.546875 111.820312 180.472656 111.769531 C 180.398438 111.71875 180.316406 111.683594 180.226562 111.664062 C 180.140625 111.644531 180.046875 111.644531 179.960938 111.660156 C 179.871094 111.679688 179.789062 111.710938 179.710938 111.761719 C 179.636719 111.8125 179.570312 111.875 179.523438 111.949219 C 179.46875 112.023438 179.433594 112.105469 179.417969 112.195312 C 179.398438 112.285156 179.398438 112.375 179.414062 112.460938 C 179.683594 113.808594 179.738281 114.121094 180.332031 114.121094 C 180.441406 114.121094 180.554688 114.09375 180.652344 114.039062 C 180.75 113.988281 180.835938 113.910156 180.894531 113.816406 C 180.957031 113.722656 180.996094 113.613281 181.003906 113.503906 C 181.011719 113.390625 180.996094 113.28125 180.949219 113.175781 C 180.910156 112.960938 180.789062 112.328125 180.761719 112.207031 Z M 184.882812 121.125 C 185.757812 121.382812 186.59375 120.964844 186.566406 120.746094 C 186.539062 120.53125 186.566406 120.640625 185.382812 120.195312 C 184.585938 119.898438 183.710938 118.847656 183.402344 119.011719 C 183.09375 119.171875 183.5625 120.035156 183.671875 120.195312 C 183.960938 120.632812 184.386719 120.960938 184.882812 121.125 Z M 209.523438 108.328125 C 207.757812 115.722656 206.464844 122 206.25 123.253906 C 206.105469 123.796875 206.078125 124.367188 206.167969 124.925781 C 206.882812 126.445312 216.109375 129.449219 217.28125 128.859375 C 218.453125 128.265625 221.5 121.40625 225.042969 114.335938 C 227.210938 114.40625 229.382812 114.246094 231.523438 113.863281 C 233.773438 113.449219 235.960938 112.757812 238.042969 111.804688 C 242.59375 109.703125 247.578125 100.703125 248.253906 96.175781 C 248.757812 91.261719 247.71875 86.3125 245.277344 82.019531 C 233.972656 62.417969 200.820312 72.964844 203.515625 94.734375 C 204.285156 99.714844 206.355469 104.40625 209.523438 108.328125 Z M 217.742188 124.371094 C 217.742188 124.585938 217.496094 124.558594 216.394531 124.371094 C 214.132812 124.085938 211.945312 123.390625 209.941406 122.308594 C 208.996094 121.796875 208.742188 121.691406 208.835938 121.460938 C 208.929688 121.234375 209.132812 121.3125 210.585938 121.71875 C 210.722656 121.71875 214.898438 123.066406 216.097656 123.484375 C 217.644531 124.183594 217.742188 124.183594 217.742188 124.371094 Z M 217.496094 102.453125 C 218.9375 102.527344 220.371094 102.230469 221.660156 101.589844 C 222.859375 102.171875 224.15625 102.523438 225.488281 102.628906 C 223.222656 106.84375 218.628906 115.441406 217.148438 120.019531 L 211.4375 118.445312 C 212.78125 115.128906 215.761719 107.371094 217.472656 102.453125 Z M 217.027344 101.335938 C 216.019531 101.183594 215.09375 100.707031 214.382812 99.976562 C 213.675781 99.246094 213.226562 98.304688 213.105469 97.292969 C 212.730469 94.601562 214.453125 91.582031 217.054688 92.296875 C 218.683594 92.742188 218.886719 94.035156 218.601562 95.664062 C 218.359375 96.851562 217.484375 99.828125 217 101.28125 Z M 220.691406 98.101562 C 220.835938 97.222656 221.164062 96.378906 221.660156 95.636719 C 221.894531 95.230469 222.242188 94.902344 222.65625 94.683594 C 223.070312 94.464844 223.539062 94.363281 224.003906 94.398438 C 225 94.695312 225.433594 96.582031 224.609375 97.765625 C 223.820312 98.8125 222.839844 99.699219 221.714844 100.378906 C 221.328125 100.152344 221.019531 99.8125 220.832031 99.40625 C 220.644531 99 220.585938 98.542969 220.664062 98.101562 Z M 208.308594 80.980469 C 214.34375 73.71875 225.703125 70.835938 233.90625 73.828125 C 238.363281 75.355469 242.113281 78.453125 244.453125 82.542969 C 246.777344 86.628906 247.769531 91.335938 247.296875 96.015625 C 246.675781 100.203125 241.90625 108.90625 237.71875 110.832031 C 233.886719 112.582031 229.707031 113.429688 225.5 113.3125 C 225.042969 113.3125 224.558594 113.3125 224.382812 113.636719 C 223.585938 115.25 222.132812 118.375 220.703125 121.3125 C 219.71875 120.835938 218.695312 120.441406 217.644531 120.128906 C 219.207031 115.65625 224.140625 106.871094 226.484375 102.617188 C 228.515625 102.789062 230.554688 102.4375 232.410156 101.589844 C 232.910156 101.328125 233.328125 100.925781 233.609375 100.433594 C 233.890625 99.941406 234.023438 99.382812 233.996094 98.816406 C 233.96875 98.25 233.785156 97.703125 233.457031 97.242188 C 233.128906 96.777344 232.679688 96.417969 232.15625 96.203125 C 230.066406 95.179688 228.195312 97.632812 227.101562 99.691406 C 226.804688 100.230469 226.46875 100.863281 226.09375 101.578125 C 225.003906 101.507812 223.929688 101.285156 222.898438 100.917969 C 223.925781 100.199219 224.832031 99.324219 225.59375 98.332031 C 226.019531 97.6875 226.238281 96.925781 226.210938 96.15625 C 226.1875 95.382812 225.925781 94.636719 225.460938 94.019531 C 225.09375 93.597656 224.585938 93.320312 224.03125 93.242188 C 223.472656 93.164062 222.910156 93.292969 222.441406 93.601562 C 221.5 94.183594 220.742188 95.023438 220.265625 96.019531 C 219.785156 97.019531 219.605469 98.136719 219.746094 99.234375 C 219.894531 99.855469 220.226562 100.414062 220.703125 100.835938 C 219.820312 101.203125 218.871094 101.386719 217.914062 101.375 C 218.453125 99.785156 219.328125 96.917969 219.558594 95.746094 C 219.703125 95.078125 219.734375 94.390625 219.652344 93.710938 C 219.550781 93.128906 219.277344 92.589844 218.875 92.15625 C 218.472656 91.722656 217.949219 91.417969 217.375 91.273438 C 214.101562 90.34375 211.691406 93.96875 212.164062 97.347656 C 212.296875 98.558594 212.816406 99.695312 213.648438 100.589844 C 214.476562 101.480469 215.570312 102.085938 216.769531 102.304688 C 215.046875 107.15625 212.351562 114.980469 211.003906 118.324219 L 208.042969 117.554688 C 209.941406 108.015625 210.167969 108.246094 209.898438 108.125 C 206.839844 104.222656 204.878906 99.570312 204.230469 94.652344 C 203.910156 92.214844 204.109375 89.738281 204.8125 87.382812 C 205.515625 85.027344 206.707031 82.84375 208.308594 80.980469 Z M 227.007812 101.660156 C 227.953125 99.949219 229.835938 96.203125 231.667969 97.117188 C 232.035156 97.265625 232.355469 97.511719 232.59375 97.828125 C 232.832031 98.144531 232.976562 98.519531 233.015625 98.910156 C 232.988281 101.28125 229.296875 101.699219 226.953125 101.660156 Z M 278.578125 107.601562 C 280.199219 106.644531 282.117188 106.320312 283.964844 106.683594 C 285.996094 106.71875 287.933594 107.53125 289.382812 108.953125 C 290.835938 110.371094 291.6875 112.292969 291.765625 114.320312 C 290.542969 113.613281 289.117188 113.347656 287.722656 113.566406 C 284.34375 113.863281 279.925781 115.695312 280.515625 118.957031 C 281 121.648438 284.558594 121.285156 287.253906 120.558594 C 289.945312 119.832031 292.089844 118.511719 292.640625 115.910156 C 295.914062 118.296875 296.683594 122.472656 296.816406 126.554688 C 296.816406 126.609375 296.839844 126.664062 296.878906 126.707031 C 296.921875 126.746094 296.976562 126.769531 297.03125 126.769531 C 297.089844 126.769531 297.144531 126.746094 297.183594 126.707031 C 297.226562 126.664062 297.246094 126.609375 297.246094 126.554688 C 297.34375 121.988281 296.519531 117.515625 292.789062 114.914062 C 292.828125 113.746094 292.628906 112.578125 292.203125 111.488281 C 291.777344 110.398438 291.136719 109.40625 290.316406 108.570312 C 289.496094 107.738281 288.515625 107.078125 287.433594 106.632812 C 286.351562 106.1875 285.1875 105.964844 284.019531 105.984375 C 282.148438 105.710938 280.242188 106.101562 278.628906 107.085938 C 278.132812 107.332031 278.359375 107.695312 278.578125 107.601562 Z M 290.863281 117.257812 C 289.339844 119.253906 285.03125 120.289062 283.035156 119.953125 C 282.292969 119.832031 281.6875 119.523438 281.527344 118.753906 C 281.042969 116.058594 285.691406 114.589844 288.464844 114.496094 C 289.59375 114.410156 290.722656 114.699219 291.671875 115.320312 C 291.570312 116.023438 291.289062 116.691406 290.863281 117.257812 Z M 272.40625 91.851562 C 273.847656 90.074219 272.878906 86.976562 268.851562 86.960938 C 267.289062 86.960938 266.535156 88.550781 266.640625 90.074219 C 266.882812 93.699219 270.964844 93.589844 272.40625 91.851562 Z M 267.585938 90.007812 C 267.585938 89.117188 268 87.957031 268.929688 87.972656 C 271.101562 87.972656 272.097656 88.984375 272.097656 90.101562 C 272.042969 92.648438 267.410156 93.964844 267.585938 90.007812 Z M 267.03125 242.730469 C 255.191406 238 249.695312 260.890625 240.023438 280.558594 C 239.960938 281.382812 239.988281 282.214844 240.101562 283.035156 C 240.101562 285.097656 240.332031 298.742188 241.53125 300.292969 C 241.855469 300.914062 243.214844 300.292969 243.847656 299.902344 C 249.226562 296.574219 254.292969 292.769531 258.988281 288.53125 C 259.027344 288.488281 259.058594 288.433594 259.078125 288.375 C 259.097656 288.316406 259.101562 288.257812 259.097656 288.195312 C 261.601562 284.625 270.992188 266.035156 273.269531 256.714844 C 274.859375 250.113281 273.28125 245.195312 267.03125 242.730469 Z M 271.261719 259.839844 C 264.921875 259.027344 258.792969 257.023438 253.195312 253.9375 C 256.347656 247.96875 260.242188 241.167969 266.667969 243.726562 C 273.820312 246.570312 273.671875 252.457031 271.261719 259.796875 Z M 248.84375 294.863281 C 248.433594 294.515625 247.980469 294.21875 247.5 293.976562 C 245.679688 293.050781 243.574219 292.847656 241.613281 293.410156 C 241.476562 291.804688 240.707031 281.378906 240.707031 281.285156 C 250.800781 284.976562 247.6875 283.375 257.683594 288.34375 C 256.632812 289.339844 252.683594 292.101562 248.84375 294.835938 Z M 255.796875 255.878906 C 257.109375 256.597656 258.460938 257.25 259.839844 257.832031 C 256.75 262.683594 254.023438 267.75 251.675781 273 C 249.410156 277.730469 249.492188 277.703125 247.1875 282.859375 C 245.839844 282.429688 244.496094 282.027344 243.148438 281.621094 C 244.601562 278.726562 254.949219 257.546875 255.796875 255.851562 Z M 247.714844 282.996094 C 252.09375 275.140625 256.550781 265.375 260.378906 258.007812 C 261.722656 258.574219 263.070312 259.03125 264.417969 259.433594 C 263.703125 260.78125 261.617188 264.363281 261.0625 265.402344 C 260.511719 266.441406 254.976562 277.351562 254.585938 278.1875 C 253.964844 279.535156 252.265625 283.292969 251.742188 284.492188 C 250.367188 283.886719 249.046875 283.425781 247.660156 282.96875 Z M 252.226562 284.667969 C 253.046875 283.171875 256.429688 276.894531 256.847656 276.085938 C 257.480469 274.832031 264.539062 260.40625 264.929688 259.570312 C 266.167969 259.917969 267.476562 260.214844 268.3125 260.378906 C 265.847656 267.113281 258.746094 280.085938 256.1875 286.484375 C 253.855469 285.394531 253.332031 285.125 252.171875 284.640625 Z M 253.046875 254.328125 L 255.460938 255.675781 C 250.601562 263.953125 246.367188 272.578125 242.796875 281.488281 L 240.777344 280.867188 C 248.601562 264.191406 248.96875 262.007812 252.996094 254.300781 Z M 258.597656 287.65625 L 256.566406 286.6875 C 258.761719 282.375 265.628906 271.316406 268.769531 260.472656 C 269.523438 260.605469 270.265625 260.726562 270.980469 260.820312 C 267.515625 270.058594 263.359375 279.019531 258.546875 287.628906 Z M 216.394531 296.398438 C 216.929688 295.957031 217.3125 295.351562 217.492188 294.679688 C 217.667969 294.003906 217.628906 293.292969 217.375 292.640625 C 217.261719 291.703125 216.832031 290.832031 216.15625 290.167969 C 215.480469 289.507812 214.597656 289.097656 213.660156 289.003906 C 212.71875 288.910156 211.773438 289.136719 210.980469 289.652344 C 210.1875 290.167969 209.589844 290.9375 209.292969 291.832031 C 207.570312 290.714844 205.695312 289.53125 203.90625 288.398438 C 205.253906 286.605469 209.214844 287.402344 209.617188 288.871094 C 209.625 288.925781 209.65625 288.976562 209.703125 289.011719 C 209.75 289.046875 209.808594 289.058594 209.867188 289.050781 C 209.921875 289.042969 209.976562 289.011719 210.007812 288.964844 C 210.042969 288.917969 210.058594 288.859375 210.046875 288.800781 C 209.847656 286.457031 204.96875 285.082031 203.003906 287.84375 C 201.265625 286.78125 199.109375 285.488281 197.304688 284.503906 C 198.855469 283.15625 202.316406 283.910156 202.691406 285.3125 C 202.710938 285.359375 202.746094 285.402344 202.789062 285.425781 C 202.832031 285.449219 202.886719 285.460938 202.9375 285.449219 C 202.984375 285.441406 203.03125 285.414062 203.0625 285.371094 C 203.09375 285.332031 203.113281 285.285156 203.109375 285.230469 C 202.933594 283.050781 198.421875 281.582031 196.375 283.980469 C 195.515625 283.5 194.613281 283.101562 193.679688 282.792969 C 193.511719 282.722656 193.324219 282.703125 193.140625 282.738281 C 192.960938 282.769531 192.789062 282.855469 192.65625 282.984375 C 189.25 287.226562 177.757812 298.246094 172.449219 299.523438 C 172.316406 299.546875 172.191406 299.601562 172.085938 299.683594 C 171.980469 299.769531 171.898438 299.878906 171.847656 300.003906 C 171.800781 300.128906 171.785156 300.265625 171.804688 300.398438 C 171.824219 300.535156 171.878906 300.660156 171.964844 300.765625 C 173.128906 301.949219 174.464844 302.949219 175.925781 303.742188 C 174.578125 305.089844 173.527344 306.300781 172.746094 307.175781 C 172.34375 307.609375 172.125 315.851562 172.476562 317.671875 C 172.527344 317.847656 172.644531 318.003906 172.800781 318.101562 C 174.496094 319.261719 196.363281 328.71875 198.597656 327.449219 C 200.09375 326.601562 217.941406 308.027344 218.226562 307.460938 C 218.65625 306.570312 218.507812 300.644531 218.480469 298.273438 C 218.375 297.558594 217.039062 296.789062 216.394531 296.398438 Z M 173.285156 314.195312 L 173.285156 311.191406 C 178.875 313.886719 191.671875 319.382812 196.523438 320.917969 C 197.761719 321.320312 197.871094 321.269531 198.515625 320.917969 C 202.222656 318.546875 215.300781 303.808594 217.699219 301.558594 L 217.699219 304.402344 C 210.425781 311.691406 198.074219 324.460938 197.84375 323.734375 C 196.507812 323.652344 174.445312 314.734375 173.285156 314.195312 Z M 216.054688 291.859375 C 216.539062 292.675781 216.800781 293.605469 216.8125 294.554688 C 216.804688 294.855469 216.730469 295.152344 216.59375 295.421875 C 216.457031 295.691406 216.257812 295.921875 216.015625 296.101562 C 214.882812 295.347656 212.742188 293.949219 210.210938 292.304688 C 211.597656 289.570312 214.683594 289.53125 216.003906 291.859375 Z M 172.949219 300.480469 C 178.6875 298.785156 189.585938 288.277344 193.25 283.722656 C 194.132812 283.96875 194.980469 284.316406 195.78125 284.761719 C 194.433594 287.265625 195.875 290.015625 196.386719 289.625 C 196.671875 289.410156 196.160156 289.328125 196.078125 288.007812 C 196.042969 287.042969 196.261719 286.085938 196.710938 285.230469 C 198.570312 286.203125 200.753906 287.46875 202.597656 288.53125 C 201.46875 291.050781 202.828125 293.542969 203.300781 293.179688 C 203.769531 292.816406 203.082031 292.898438 203.003906 291.578125 C 202.96875 290.710938 203.136719 289.847656 203.488281 289.058594 C 205.386719 290.175781 207.328125 291.335938 209.105469 292.425781 C 208.832031 293.097656 208.722656 293.824219 208.789062 294.546875 C 208.855469 295.269531 209.09375 295.964844 209.484375 296.574219 C 209.5 296.597656 209.523438 296.617188 209.546875 296.632812 C 209.574219 296.644531 209.601562 296.65625 209.628906 296.660156 C 209.65625 296.664062 209.6875 296.660156 209.714844 296.652344 C 209.742188 296.644531 209.769531 296.632812 209.792969 296.617188 C 209.816406 296.597656 209.835938 296.574219 209.847656 296.550781 C 209.863281 296.523438 209.875 296.496094 209.875 296.46875 C 209.878906 296.441406 209.878906 296.410156 209.871094 296.382812 C 209.863281 296.355469 209.851562 296.328125 209.832031 296.304688 C 209.589844 295.769531 209.472656 295.1875 209.484375 294.601562 C 209.496094 294.011719 209.636719 293.4375 209.898438 292.910156 C 213.039062 294.824219 215.570312 296.425781 216.351562 296.953125 C 216.203125 297.085938 202.152344 309.589844 197.371094 313.304688 C 194.234375 312.484375 177.757812 304.308594 172.949219 300.480469 Z M 173.460938 307.984375 C 179.5625 310.679688 193.425781 316.929688 196.617188 317.535156 C 197.167969 317.644531 197.386719 317.683594 198.4375 316.847656 C 202.921875 313.253906 217.511719 297.988281 217.644531 298.152344 C 217.652344 298.191406 217.652344 298.230469 217.644531 298.273438 L 217.644531 300.964844 C 214.640625 303.378906 197.9375 320.917969 197.667969 320.082031 C 196.320312 320.082031 174.429688 311.152344 173.3125 310.652344 C 173.285156 310.085938 173.40625 308.578125 173.460938 307.984375 Z M 197.992188 326.546875 C 196.644531 327.316406 176.128906 318.976562 173.378906 317.28125 C 173.277344 316.421875 173.226562 315.558594 173.230469 314.695312 C 179.132812 317.605469 196.292969 324.851562 197.871094 324.785156 C 200.175781 324.664062 216.460938 306.328125 217.621094 305.046875 C 217.632812 305.738281 217.566406 306.421875 217.417969 307.097656 C 217.1875 307.539062 198.878906 326.050781 197.992188 326.546875 Z M 86.382812 250.609375 C 86.476562 252.050781 86.542969 253.304688 86.542969 254.476562 C 86.542969 254.65625 86.613281 254.828125 86.742188 254.953125 C 86.867188 255.078125 87.039062 255.152344 87.21875 255.152344 C 87.394531 255.152344 87.566406 255.078125 87.695312 254.953125 C 87.820312 254.828125 87.890625 254.65625 87.890625 254.476562 C 87.890625 253.222656 87.824219 251.984375 87.730469 250.515625 C 87.714844 250.339844 87.632812 250.171875 87.5 250.054688 C 87.363281 249.9375 87.1875 249.878906 87.007812 249.890625 C 86.828125 249.902344 86.664062 249.984375 86.546875 250.121094 C 86.429688 250.257812 86.371094 250.433594 86.382812 250.609375 Z M 291.644531 223.601562 C 291.554688 223.605469 291.46875 223.628906 291.390625 223.667969 C 291.3125 223.707031 291.242188 223.761719 291.183594 223.828125 C 291.125 223.894531 291.082031 223.972656 291.054688 224.054688 C 291.027344 224.136719 291.015625 224.226562 291.023438 224.316406 C 291.105469 225.554688 291.1875 226.886719 291.1875 228.179688 C 291.1875 228.359375 291.257812 228.53125 291.382812 228.65625 C 291.507812 228.785156 291.679688 228.855469 291.859375 228.855469 C 292.039062 228.855469 292.210938 228.785156 292.335938 228.65625 C 292.460938 228.53125 292.53125 228.359375 292.53125 228.179688 C 292.53125 226.835938 292.453125 225.488281 292.359375 224.21875 C 292.351562 224.132812 292.332031 224.046875 292.292969 223.96875 C 292.253906 223.886719 292.199219 223.816406 292.132812 223.761719 C 292.066406 223.703125 291.988281 223.660156 291.902344 223.632812 C 291.820312 223.605469 291.730469 223.59375 291.644531 223.601562 Z M 82.894531 247.257812 C 83.070312 247.257812 83.242188 247.1875 83.371094 247.058594 C 83.496094 246.933594 83.566406 246.761719 83.566406 246.582031 C 83.566406 246.40625 83.496094 246.234375 83.371094 246.105469 C 83.242188 245.980469 83.070312 245.910156 82.894531 245.910156 C 81.261719 245.910156 79.902344 246.03125 78.554688 246.003906 C 78.375 246.003906 78.203125 246.074219 78.074219 246.199219 C 77.945312 246.328125 77.871094 246.496094 77.867188 246.675781 C 77.867188 246.855469 77.9375 247.027344 78.066406 247.152344 C 78.191406 247.28125 78.363281 247.351562 78.542969 247.351562 C 79.929688 247.378906 81.453125 247.324219 82.894531 247.257812 Z M 287.46875 219.613281 C 285.851562 219.613281 284.492188 219.707031 283.128906 219.722656 C 282.953125 219.722656 282.78125 219.792969 282.652344 219.917969 C 282.527344 220.042969 282.457031 220.214844 282.457031 220.394531 C 282.457031 220.574219 282.527344 220.746094 282.652344 220.871094 C 282.78125 220.996094 282.953125 221.070312 283.128906 221.070312 C 284.585938 221.070312 286.09375 221.070312 287.546875 220.960938 C 287.726562 220.949219 287.894531 220.867188 288.011719 220.734375 C 288.132812 220.601562 288.191406 220.425781 288.183594 220.246094 C 288.171875 220.066406 288.089844 219.902344 287.957031 219.78125 C 287.820312 219.664062 287.644531 219.601562 287.46875 219.613281 Z M 86.019531 238.929688 C 86.097656 240.171875 86.179688 241.503906 86.179688 242.796875 C 86.183594 242.976562 86.253906 243.144531 86.382812 243.269531 C 86.507812 243.394531 86.675781 243.46875 86.851562 243.472656 C 87.03125 243.472656 87.203125 243.402344 87.328125 243.273438 C 87.457031 243.148438 87.527344 242.976562 87.527344 242.796875 C 87.527344 241.449219 87.445312 240.101562 87.367188 238.835938 C 87.351562 238.660156 87.269531 238.492188 87.132812 238.375 C 87 238.257812 86.824219 238.199219 86.644531 238.210938 C 86.464844 238.222656 86.300781 238.304688 86.183594 238.441406 C 86.066406 238.578125 86.003906 238.753906 86.019531 238.929688 Z M 292.167969 216.5 C 292.167969 215.15625 292.089844 213.808594 291.992188 212.542969 C 291.980469 212.363281 291.898438 212.195312 291.765625 212.078125 C 291.628906 211.960938 291.453125 211.902344 291.273438 211.914062 C 291.09375 211.925781 290.929688 212.011719 290.8125 212.144531 C 290.695312 212.28125 290.632812 212.457031 290.648438 212.636719 C 290.726562 213.875 290.808594 215.207031 290.808594 216.5 C 290.808594 216.679688 290.878906 216.851562 291.007812 216.976562 C 291.132812 217.105469 291.304688 217.175781 291.480469 217.175781 C 291.660156 217.175781 291.835938 217.105469 291.964844 216.980469 C 292.09375 216.851562 292.164062 216.679688 292.167969 216.5 Z M 95.960938 247.082031 C 96.046875 247.078125 96.136719 247.058594 96.214844 247.019531 C 96.296875 246.984375 96.367188 246.929688 96.429688 246.867188 C 96.488281 246.800781 96.535156 246.722656 96.566406 246.640625 C 96.597656 246.558594 96.609375 246.46875 96.605469 246.382812 C 96.59375 246.203125 96.511719 246.039062 96.382812 245.921875 C 96.253906 245.800781 96.082031 245.734375 95.90625 245.734375 C 94.277344 245.800781 92.914062 245.855469 91.554688 245.828125 C 91.375 245.828125 91.203125 245.898438 91.078125 246.027344 C 90.953125 246.152344 90.882812 246.324219 90.882812 246.503906 C 90.882812 246.679688 90.953125 246.851562 91.078125 246.976562 C 91.203125 247.105469 91.375 247.175781 91.554688 247.175781 C 92.996094 247.203125 94.503906 247.148438 95.960938 247.082031 Z M 300.535156 219.4375 C 299.1875 219.503906 297.691406 219.546875 296.195312 219.546875 C 296.109375 219.542969 296.019531 219.558594 295.9375 219.589844 C 295.851562 219.621094 295.777344 219.667969 295.710938 219.730469 C 295.648438 219.792969 295.597656 219.867188 295.5625 219.945312 C 295.527344 220.027344 295.511719 220.117188 295.511719 220.207031 C 295.511719 220.386719 295.582031 220.558594 295.707031 220.6875 C 295.832031 220.816406 296.003906 220.890625 296.183594 220.894531 C 297.71875 220.894531 298.957031 220.894531 300.589844 220.785156 C 300.675781 220.78125 300.765625 220.761719 300.84375 220.722656 C 300.925781 220.6875 300.996094 220.632812 301.058594 220.570312 C 301.117188 220.503906 301.164062 220.429688 301.195312 220.34375 C 301.226562 220.261719 301.238281 220.171875 301.234375 220.085938 C 301.21875 219.910156 301.136719 219.746094 301.007812 219.628906 C 300.878906 219.507812 300.710938 219.441406 300.535156 219.4375 Z M 65.003906 207.167969 C 65.179688 207.300781 103.167969 201.667969 104.796875 200.671875 C 104.886719 200.605469 104.960938 200.519531 105.007812 200.417969 C 105.054688 200.316406 105.074219 200.203125 105.066406 200.09375 C 105.066406 198.355469 102.789062 182.042969 101.699219 177.972656 C 101.5625 177.476562 101.429688 176.976562 101.121094 176.800781 C 99.058594 175.5625 62.738281 182.40625 60.570312 183.808594 C 60.511719 183.84375 60.460938 183.886719 60.421875 183.945312 C 60.382812 184 60.355469 184.0625 60.34375 184.128906 C 59.882812 185.761719 63.832031 206.359375 65.003906 207.167969 Z M 61.164062 184.453125 C 63.75 183.28125 96.714844 177.246094 100.488281 177.71875 C 101.402344 180.074219 103.855469 197.34375 104.015625 199.878906 C 102.144531 200.429688 65.515625 206.722656 65.378906 206.75 C 65.246094 206.773438 65.230469 206.9375 64.949219 206.089844 C 63.761719 202.53125 61.097656 187.496094 61.164062 184.453125 Z M 61.164062 184.453125 " fill-opacity="1" fill-rule="nonzero"/><g clip-path="url(#92959e7414)"><path fill="#efecec" d="M 107.761719 201.871094 C 107.835938 201.734375 107.867188 201.582031 107.855469 201.425781 C 107.855469 199.285156 104.785156 175.507812 103.691406 173.609375 C 103.605469 173.46875 103.484375 173.355469 103.339844 173.277344 C 103.195312 173.199219 103.035156 173.160156 102.871094 173.164062 C 98.359375 172.613281 60.289062 180.046875 57.78125 181.785156 C 57.433594 182.027344 57.484375 182.636719 57.527344 183.28125 C 57.742188 186.824219 61.566406 210.128906 62.914062 209.996094 C 63.0625 209.996094 63.007812 209.886719 62.660156 210.601562 C 60.558594 214.925781 56.570312 228.773438 56.652344 231.5625 C 56.652344 232.734375 56.921875 234.257812 58.078125 234.175781 C 66.390625 233.152344 107.140625 226.6875 118.859375 224.273438 C 119.320312 224.179688 119.617188 223.761719 119.601562 223.074219 C 119.464844 221.929688 119.117188 220.820312 118.578125 219.800781 C 116.933594 216.71875 110.117188 204.5 107.761719 201.871094 Z M 62.996094 209.578125 C 61.945312 208.230469 58.078125 185.019531 58.375 182.445312 C 61.339844 180.910156 98.898438 173.648438 102.832031 174.242188 C 103.90625 177.207031 106.695312 198.613281 106.871094 201.183594 C 102.101562 202.828125 69.085938 208.164062 62.996094 209.578125 Z M 63.589844 209.980469 C 64.71875 209.699219 103.261719 203.246094 106.789062 202.316406 C 108.71875 204.109375 117.417969 219.585938 117.984375 220.90625 C 110.253906 222.253906 64.382812 229.917969 57.632812 230.941406 C 57.726562 226.859375 61.917969 212.59375 63.589844 209.980469 Z M 63.589844 209.980469 " fill-opacity="1" fill-rule="nonzero"/></g><path fill="#efecec" d="M 68.652344 223.953125 C 69.824219 223.777344 94.695312 220.785156 103.679688 218.347656 C 103.734375 218.332031 103.78125 218.296875 103.8125 218.25 C 103.839844 218.199219 103.847656 218.140625 103.835938 218.085938 C 103.820312 218.027344 103.785156 217.980469 103.734375 217.953125 C 103.683594 217.921875 103.625 217.914062 103.570312 217.929688 C 101.804688 218.292969 80.28125 221.164062 68.625 223.535156 C 68.59375 223.527344 68.5625 223.53125 68.53125 223.539062 C 68.5 223.546875 68.46875 223.5625 68.445312 223.585938 C 68.421875 223.605469 68.402344 223.632812 68.390625 223.664062 C 68.375 223.695312 68.371094 223.726562 68.375 223.761719 C 68.375 223.792969 68.386719 223.824219 68.402344 223.851562 C 68.417969 223.882812 68.441406 223.90625 68.46875 223.921875 C 68.492188 223.941406 68.523438 223.953125 68.558594 223.960938 C 68.589844 223.964844 68.621094 223.960938 68.652344 223.953125 Z M 86.828125 130.21875 C 86.324219 131.355469 85.898438 132.523438 85.558594 133.71875 C 85.539062 133.914062 85.59375 134.105469 85.707031 134.257812 C 87.070312 136.308594 101.011719 152.027344 104.648438 154.238281 C 105.148438 154.546875 105.738281 154.761719 106.105469 154.316406 C 108.746094 151.03125 112.195312 148.484375 116.113281 146.921875 C 119.300781 145.792969 122.648438 145.164062 126.027344 145.050781 C 128.722656 144.808594 129.195312 144.539062 130.230469 142.773438 C 131.453125 140.449219 133.078125 138.363281 135.027344 136.601562 C 137.511719 134.429688 140.269531 132.59375 143.230469 131.132812 C 143.363281 131.058594 143.46875 130.941406 143.527344 130.800781 C 143.585938 130.65625 143.59375 130.5 143.554688 130.351562 C 143.097656 129.195312 142.496094 128.097656 141.761719 127.09375 C 142.246094 126.929688 142.785156 126.78125 142.785156 126.296875 C 142.785156 124.949219 131.039062 107.949219 127.777344 104.742188 C 127.441406 104.40625 126.957031 103.960938 126.511719 103.988281 C 119.777344 104.367188 113.214844 110.726562 109.417969 116.273438 C 105.066406 116.113281 102.25 115.722656 97.292969 117.8125 C 93.792969 119.296875 90.636719 121.488281 88.027344 124.25 C 87.621094 124.667969 84.875 127.578125 84.832031 127.808594 C 84.792969 128.035156 84.875 128.035156 86.828125 130.21875 Z M 140.710938 129.839844 C 135.09375 130.796875 131.511719 135.472656 128.871094 140.550781 C 127.699219 142.8125 127.804688 142.921875 126.566406 142.894531 C 124.398438 142.773438 122.226562 142.851562 120.074219 143.136719 C 118.496094 143.371094 116.941406 143.761719 115.441406 144.296875 C 112.019531 145.507812 108.097656 149.386719 106.007812 152.269531 C 105.964844 152.328125 105.910156 152.378906 105.84375 152.414062 C 105.78125 152.449219 105.707031 152.472656 105.632812 152.480469 C 105.558594 152.484375 105.484375 152.476562 105.414062 152.453125 C 105.347656 152.425781 105.28125 152.386719 105.226562 152.339844 C 100.851562 147.824219 93.105469 139.902344 89.210938 135.351562 C 89.023438 135.148438 89.34375 134.851562 89.535156 135.066406 C 92.054688 137.761719 98.558594 144.214844 105.539062 151.234375 C 107.894531 148.230469 111.53125 144.59375 115.128906 143.324219 C 117.089844 142.625 119.132812 142.171875 121.207031 141.976562 C 123.148438 141.832031 125.097656 141.832031 127.039062 141.976562 C 127.832031 141.0625 131.765625 130.664062 140.683594 129.503906 C 140.710938 129.523438 140.734375 129.546875 140.746094 129.578125 C 140.761719 129.605469 140.769531 129.636719 140.773438 129.667969 C 140.773438 129.703125 140.765625 129.734375 140.753906 129.761719 C 140.742188 129.792969 140.722656 129.820312 140.699219 129.839844 Z M 126.5 105.082031 C 129.195312 106.964844 140.160156 123.199219 141.585938 126.042969 C 139.109375 126.828125 136.71875 127.859375 134.449219 129.125 C 132.296875 130.203125 130.414062 131.746094 128.9375 133.644531 C 127.460938 135.542969 126.425781 137.746094 125.90625 140.09375 C 121.070312 132.226562 114.320312 123.5625 109.835938 117.191406 C 110.105469 117.015625 117.675781 105.605469 126.5 105.082031 Z M 97.589844 118.550781 C 102.507812 116.570312 105.226562 117.03125 109.296875 117.203125 C 113.339844 124.101562 120.597656 133.828125 125.382812 140.199219 C 120.96875 139.15625 116.324219 139.792969 112.355469 141.992188 C 109.96875 143.339844 107.058594 146.570312 105.269531 148.578125 C 102.683594 146.503906 87.757812 130.609375 85.359375 127.914062 C 89.050781 123.738281 92.457031 120.597656 97.589844 118.5 Z M 72.9375 152.808594 C 72.605469 152.574219 72.210938 152.445312 71.804688 152.429688 C 71.398438 152.414062 70.996094 152.519531 70.648438 152.730469 C 70.394531 152.839844 70.164062 153.003906 69.972656 153.207031 C 69.78125 153.40625 69.632812 153.644531 69.53125 153.90625 C 69.433594 154.164062 69.386719 154.441406 69.394531 154.71875 C 69.402344 154.996094 69.464844 155.269531 69.578125 155.523438 C 69.691406 155.777344 69.851562 156.007812 70.054688 156.199219 C 70.253906 156.390625 70.492188 156.539062 70.753906 156.636719 C 71.011719 156.738281 71.289062 156.785156 71.566406 156.777344 C 71.84375 156.769531 72.117188 156.707031 72.371094 156.59375 C 72.777344 156.507812 73.144531 156.296875 73.429688 155.992188 C 73.714844 155.691406 73.898438 155.308594 73.960938 154.898438 C 74.019531 154.488281 73.957031 154.066406 73.773438 153.695312 C 73.589844 153.320312 73.300781 153.011719 72.9375 152.808594 Z M 72.046875 155.503906 C 71.105469 155.800781 70.539062 155.503906 70.3125 155.046875 C 69.878906 154.089844 70.417969 152.621094 71.820312 153.050781 C 72.804688 153.414062 73.597656 155.074219 72.046875 155.570312 Z M 141.4375 91.164062 C 141.828125 91.960938 143.648438 91.664062 144.441406 91.40625 C 144.859375 91.273438 145.128906 91.125 145.171875 90.71875 C 145.292969 89.710938 145.425781 80.953125 144.96875 80.105469 C 144.921875 80.015625 144.847656 79.941406 144.757812 79.894531 C 144.671875 79.847656 144.570312 79.828125 144.46875 79.835938 C 143.03125 79.832031 141.601562 80.039062 140.226562 80.457031 C 139.675781 80.792969 140.953125 90.277344 141.4375 91.164062 Z M 140.507812 80.777344 C 141.753906 80.601562 143.011719 80.542969 144.269531 80.601562 C 144.347656 81.601562 144.132812 90.234375 144.121094 90.371094 C 143.550781 90.574219 142.941406 90.648438 142.339844 90.585938 C 142.246094 90.277344 142.085938 89.441406 141.882812 88.390625 C 141.289062 85.878906 140.832031 83.339844 140.507812 80.777344 Z M 71.632812 141.441406 C 71.761719 141.503906 71.902344 141.539062 72.046875 141.539062 C 72.195312 141.539062 72.335938 141.503906 72.464844 141.441406 C 72.988281 141.117188 73.398438 140.648438 73.652344 140.09375 C 73.6875 140.003906 73.695312 139.90625 73.683594 139.8125 C 73.667969 139.71875 73.628906 139.628906 73.570312 139.554688 C 72.925781 138.785156 65.863281 130.609375 65.003906 131.121094 C 63.945312 131.804688 62.941406 132.570312 62 133.410156 C 61.960938 133.445312 61.929688 133.484375 61.910156 133.53125 C 61.890625 133.578125 61.878906 133.628906 61.878906 133.679688 C 61.851562 134.378906 69.691406 140.660156 71.632812 141.441406 Z M 65.164062 131.472656 C 66.148438 132.183594 69.460938 136.28125 72.535156 139.902344 C 72.402344 140.113281 72.238281 140.296875 72.046875 140.457031 C 68.820312 138.390625 65.734375 136.101562 62.820312 133.613281 C 63.550781 132.84375 64.335938 132.128906 65.164062 131.472656 Z M 86.328125 101.753906 C 86.625 96.527344 89.667969 94.101562 92.847656 93.480469 C 91.945312 96.796875 92.09375 101.105469 95.367188 101.660156 C 96.929688 101.914062 97.699219 101.105469 98.828125 100.164062 C 103.664062 96.121094 99.757812 92.082031 94.304688 92.363281 C 96.335938 86.785156 101.039062 82.246094 107.277344 82.097656 C 107.332031 82.097656 107.386719 82.074219 107.429688 82.035156 C 107.46875 81.996094 107.492188 81.941406 107.492188 81.882812 C 107.492188 81.824219 107.46875 81.769531 107.429688 81.730469 C 107.386719 81.691406 107.332031 81.667969 107.277344 81.667969 C 100.539062 81.53125 95.246094 86.382812 93.15625 92.445312 C 89.5625 93.0625 85.992188 95.757812 85.898438 101.671875 C 85.890625 101.699219 85.890625 101.730469 85.898438 101.757812 C 85.902344 101.785156 85.914062 101.8125 85.929688 101.835938 C 85.949219 101.859375 85.96875 101.878906 85.992188 101.898438 C 86.015625 101.914062 86.042969 101.921875 86.070312 101.929688 C 86.101562 101.933594 86.128906 101.933594 86.15625 101.925781 C 86.1875 101.921875 86.210938 101.910156 86.234375 101.894531 C 86.261719 101.878906 86.28125 101.855469 86.296875 101.832031 C 86.3125 101.808594 86.324219 101.78125 86.328125 101.753906 Z M 93.992188 93.320312 C 96 93.183594 98.992188 93.804688 99.8125 95.625 C 100.285156 96.660156 99.8125 97.941406 98.140625 99.34375 C 97.6875 99.796875 97.171875 100.183594 96.605469 100.488281 C 94.585938 101.347656 92.351562 98.855469 93.992188 93.320312 Z M 97.847656 283.84375 C 96.542969 283.496094 95.1875 283.410156 93.851562 283.59375 C 92.515625 283.777344 91.230469 284.226562 90.074219 284.917969 C 88.914062 285.605469 87.90625 286.515625 87.105469 287.601562 C 86.304688 288.683594 85.730469 289.917969 85.410156 291.226562 C 84.8125 293.949219 85.320312 296.792969 86.820312 299.140625 C 88.320312 301.488281 90.691406 303.144531 93.414062 303.742188 C 96.132812 304.339844 98.980469 303.832031 101.328125 302.332031 C 103.675781 300.832031 105.332031 298.460938 105.929688 295.738281 C 106.183594 294.425781 106.175781 293.078125 105.910156 291.769531 C 105.640625 290.457031 105.117188 289.214844 104.363281 288.109375 C 103.613281 287.003906 102.648438 286.058594 101.53125 285.324219 C 100.414062 284.59375 99.160156 284.089844 97.847656 283.84375 Z M 102.007812 294.824219 C 101.46875 296.980469 100.175781 298.871094 98.359375 300.15625 C 96.546875 301.441406 94.332031 302.035156 92.121094 301.828125 C 90.089844 301.035156 88.402344 299.550781 87.359375 297.636719 C 86.3125 295.722656 85.976562 293.5 86.410156 291.363281 C 86.914062 289.152344 88.195312 287.199219 90.019531 285.859375 C 91.847656 284.519531 94.09375 283.878906 96.351562 284.058594 C 98.402344 284.90625 100.089844 286.453125 101.113281 288.421875 C 102.140625 290.390625 102.4375 292.65625 101.953125 294.824219 Z M 102.007812 294.824219 " fill-opacity="1" fill-rule="nonzero"/><g clip-path="url(#9300797d5b)"><path fill="#efecec" d="M 115.789062 287.683594 C 114.617188 287.277344 113.359375 287.183594 112.140625 287.402344 C 111.632812 286.242188 111.011719 285.132812 110.28125 284.101562 C 111.15625 283.304688 113.554688 281.097656 112.972656 280.058594 C 110.914062 277.59375 108.464844 275.476562 105.726562 273.796875 C 104.582031 273.15625 103.324219 272.746094 102.023438 272.597656 C 101.160156 272.71875 99.113281 276.070312 98.652344 276.824219 C 98.359375 276.824219 97.308594 276.488281 97.226562 276.449219 C 97.226562 275.480469 96.941406 271.976562 96.066406 271.570312 C 95.089844 271.210938 94.070312 270.964844 93.035156 270.832031 C 92.082031 270.683594 83.472656 272.257812 82.839844 273.417969 C 82.421875 274.199219 83.390625 277.148438 83.675781 277.972656 C 82.949219 278.371094 82.25 278.820312 81.585938 279.316406 C 80.238281 280.273438 80.601562 280.234375 80.359375 280.125 C 80.066406 279.988281 79.753906 279.894531 79.429688 279.855469 C 78.355469 279.226562 77.09375 278.988281 75.859375 279.183594 C 74.621094 279.585938 71.699219 286.242188 71.226562 287.953125 C 71.074219 288.382812 71.03125 288.847656 71.105469 289.300781 C 71.429688 290.191406 73.585938 290.902344 74.488281 291.1875 C 74.238281 292.917969 74.238281 294.679688 74.488281 296.414062 C 73.300781 296.738281 70.835938 297.464844 70.972656 298.675781 C 71.105469 299.890625 74.257812 307.890625 75.5625 308.523438 C 76.28125 308.925781 77.070312 309.171875 77.886719 309.246094 C 78.703125 309.324219 79.527344 309.230469 80.304688 308.96875 C 80.746094 308.75 81.167969 308.503906 81.574219 308.226562 C 82.113281 308.632812 82.675781 308.996094 83.257812 309.347656 C 82.839844 310.382812 81.910156 312.699219 82.207031 313.75 C 82.355469 314.304688 82.796875 314.476562 83.417969 314.707031 C 85.128906 315.328125 94.34375 317.535156 95.746094 317.292969 C 96.269531 317.214844 96.550781 316.660156 96.714844 316.136719 C 97.015625 314.941406 97.191406 313.714844 97.238281 312.484375 C 97.929688 312.417969 98.621094 312.3125 99.300781 312.175781 C 99.71875 312.90625 100.25 313.566406 100.878906 314.128906 C 101.5625 314.613281 102.144531 314.371094 102.925781 313.871094 C 103.300781 314.355469 103.867188 315.03125 104.472656 315.097656 C 105.996094 315.273438 112.289062 309.347656 112.933594 308.132812 C 113.472656 307.121094 111.503906 305.316406 110.628906 304.523438 C 111.578125 303.097656 112.320312 301.546875 112.839844 299.914062 C 113.8125 300.0625 114.792969 300.117188 115.777344 300.078125 C 116.222656 300.078125 116.734375 299.914062 116.921875 299.5 C 117.742188 297.625 117.5 290.527344 116.921875 288.722656 C 116.839844 288.195312 116.234375 287.84375 115.789062 287.683594 Z M 116.113281 288.921875 C 116.570312 290.675781 116.71875 297.289062 116.046875 299 C 114.882812 299.113281 113.707031 299.058594 112.554688 298.839844 C 112.433594 298.816406 112.308594 298.84375 112.203125 298.910156 C 112.097656 298.976562 112.023438 299.082031 111.992188 299.203125 C 111.453125 301.023438 110.621094 302.742188 109.527344 304.292969 C 109.449219 304.394531 109.414062 304.527344 109.425781 304.652344 C 109.441406 304.78125 109.507812 304.898438 109.605469 304.980469 C 110.550781 305.730469 111.355469 306.644531 111.976562 307.675781 C 111.304688 308.78125 106.035156 313.601562 104.582031 314.007812 C 104.367188 314.007812 103.773438 313.199219 103.625 312.984375 C 103.128906 312.234375 102.675781 311.457031 102.277344 310.652344 C 102.21875 310.535156 102.121094 310.445312 101.996094 310.394531 C 101.875 310.347656 101.738281 310.347656 101.617188 310.394531 C 97.710938 311.863281 96.230469 311.003906 96.230469 311.972656 C 96.230469 313.425781 95.996094 314.867188 95.527344 316.242188 C 92.363281 315.898438 89.246094 315.203125 86.234375 314.167969 C 86.378906 312.730469 86.78125 311.328125 87.417969 310.03125 C 87.824219 309.128906 86.207031 309.386719 83.1875 306.316406 C 83.09375 306.222656 82.964844 306.175781 82.832031 306.175781 C 82.699219 306.175781 82.574219 306.222656 82.476562 306.316406 C 81.128906 307.417969 79.375 308.496094 79.027344 308.320312 C 78.339844 307.984375 75.171875 300.804688 74.984375 299.351562 C 75.941406 298.683594 77.03125 298.222656 78.179688 298.003906 C 78.300781 297.96875 78.40625 297.890625 78.476562 297.785156 C 78.542969 297.675781 78.574219 297.550781 78.554688 297.421875 C 78.226562 295.515625 78.226562 293.566406 78.554688 291.65625 C 78.574219 291.539062 78.550781 291.417969 78.484375 291.320312 C 78.421875 291.21875 78.320312 291.148438 78.203125 291.117188 C 77.1875 290.851562 76.210938 290.457031 75.296875 289.945312 C 75 289.730469 75.027344 289.746094 75.050781 289.515625 C 75.925781 286.371094 77.324219 283.398438 79.1875 280.71875 C 79.914062 280.515625 81.882812 281.957031 82.554688 282.46875 C 82.625 282.539062 82.71875 282.578125 82.820312 282.578125 C 82.917969 282.578125 83.011719 282.539062 83.082031 282.46875 C 83.699219 281.828125 84.367188 281.234375 85.074219 280.691406 C 87.121094 279.144531 87.675781 279.34375 87.5 278.804688 C 86.878906 277.453125 86.53125 275.996094 86.476562 274.507812 C 86.683594 274.335938 86.921875 274.199219 87.175781 274.105469 C 88.433594 273.609375 89.726562 273.203125 91.042969 272.890625 C 92.636719 272.449219 94.277344 272.179688 95.933594 272.097656 C 96.214844 272.21875 96.472656 273.445312 96.539062 273.820312 C 97.039062 276.515625 96.699219 277.070312 97.089844 277.109375 C 100.929688 277.484375 101.710938 278.550781 101.980469 278.078125 C 102.730469 276.773438 103.597656 275.539062 104.582031 274.402344 C 104.863281 274.117188 104.851562 273.984375 105.699219 274.46875 C 108.234375 276.125 110.507812 278.15625 112.433594 280.492188 C 112.636719 280.839844 110.886719 282.699219 109.605469 283.789062 C 109.160156 284.179688 109.796875 284.355469 110.953125 286.566406 C 112.113281 288.773438 111.84375 289.394531 112.460938 289.261719 C 113.65625 288.972656 114.886719 288.859375 116.113281 288.921875 Z M 303.082031 176.355469 C 300.257812 175.203125 297.296875 174.421875 294.269531 174.027344 C 292.0625 173.675781 289.460938 173.328125 287.265625 173.042969 C 289.378906 170.050781 295.644531 162.480469 296.695312 160.636719 C 296.992188 160.136719 296.425781 159.4375 296.007812 159.019531 C 293.664062 156.515625 289.136719 155.570312 285.664062 155.03125 C 283.667969 154.707031 275.34375 153.683594 273.929688 154.359375 C 272.230469 155.167969 259.675781 174.027344 259.300781 176.894531 C 259.300781 177.382812 259.460938 177.570312 259.933594 177.746094 C 261.914062 178.472656 270.84375 179.605469 272.839844 180.074219 C 270.144531 184.789062 258.167969 200.726562 256.996094 202.976562 C 256.710938 203.542969 256.886719 203.878906 257.226562 203.988281 C 258.4375 204.46875 259.683594 204.855469 260.957031 205.144531 C 261.441406 205.292969 262.503906 204.632812 264.054688 203.691406 C 271.007812 199.515625 300.832031 179.820312 303.121094 177.273438 C 303.183594 177.214844 303.234375 177.140625 303.265625 177.058594 C 303.300781 176.980469 303.3125 176.894531 303.3125 176.804688 C 303.308594 176.71875 303.285156 176.632812 303.246094 176.554688 C 303.203125 176.480469 303.148438 176.410156 303.082031 176.355469 Z M 274.132812 192.523438 C 262.679688 200.082031 258.8125 202.289062 258.679688 202.382812 C 260.523438 199.566406 271.988281 183.859375 273.957031 180.101562 C 273.992188 180.03125 274.007812 179.949219 274.007812 179.871094 C 274.007812 179.789062 273.988281 179.710938 273.953125 179.636719 C 273.917969 179.566406 273.867188 179.503906 273.804688 179.453125 C 273.742188 179.402344 273.671875 179.367188 273.59375 179.347656 C 272.246094 178.863281 262.4375 177.8125 260.121094 176.992188 C 260.417969 174.484375 272.648438 155.542969 274.132812 154.789062 C 275.613281 154.035156 289.988281 155.746094 292.679688 157.671875 C 291.265625 160.433594 283.453125 170.105469 282.1875 172.355469 C 281.929688 172.8125 281.851562 173.257812 282.347656 173.378906 C 282.847656 173.5 295.511719 174.984375 298.273438 175.886719 C 294.902344 178.703125 277.902344 189.988281 274.132812 192.46875 Z M 187.714844 110.160156 C 187.714844 110.28125 187.792969 110.429688 187.996094 111.210938 C 188.050781 111.378906 188.164062 111.523438 188.320312 111.605469 C 188.476562 111.691406 188.660156 111.714844 188.832031 111.667969 C 189.003906 111.617188 189.148438 111.5 189.234375 111.34375 C 189.320312 111.1875 189.339844 111.003906 189.289062 110.832031 C 189.15625 110.308594 189.03125 109.863281 188.953125 109.648438 C 188.875 109.5 188.742188 109.386719 188.585938 109.328125 C 188.425781 109.273438 188.253906 109.277344 188.101562 109.339844 C 187.945312 109.40625 187.820312 109.523438 187.75 109.675781 C 187.675781 109.828125 187.664062 110 187.714844 110.160156 Z M 187.714844 110.160156 " fill-opacity="1" fill-rule="nonzero"/></g></svg>