<svg xmlns="http://www.w3.org/2000/svg" xmlns:xlink="http://www.w3.org/1999/xlink" width="500" zoomAndPan="magnify" viewBox="0 0 375 374.999991" height="500" preserveAspectRatio="xMidYMid meet" version="1.0"><defs><clipPath id="94e3ef015b"><path d="M 44 67 L 328.5 67 L 328.5 328 L 44 328 Z M 44 67 " clip-rule="nonzero"/></clipPath><clipPath id="f8a9669ae9"><path d="M 261 39 L 295 39 L 295 73 L 261 73 Z M 261 39 " clip-rule="nonzero"/></clipPath><clipPath id="4614310257"><path d="M 287.085938 25.71875 L 307.996094 64.714844 L 271.640625 84.207031 L 250.730469 45.210938 Z M 287.085938 25.71875 " clip-rule="nonzero"/></clipPath><clipPath id="b64a4e44d5"><path d="M 287.085938 25.71875 L 307.996094 64.714844 L 271.640625 84.207031 L 250.730469 45.210938 Z M 287.085938 25.71875 " clip-rule="nonzero"/></clipPath><clipPath id="aa9edb53bf"><path d="M 285.988281 30.300781 L 304.003906 63.898438 L 270.453125 81.886719 L 252.4375 48.289062 Z M 285.988281 30.300781 " clip-rule="nonzero"/></clipPath><clipPath id="7f2819a679"><path d="M 257 40 L 268 40 L 268 50 L 257 50 Z M 257 40 " clip-rule="nonzero"/></clipPath><clipPath id="d83c759fa9"><path d="M 287.085938 25.71875 L 307.996094 64.714844 L 271.640625 84.207031 L 250.730469 45.210938 Z M 287.085938 25.71875 " clip-rule="nonzero"/></clipPath><clipPath id="d1ab150b29"><path d="M 287.085938 25.71875 L 307.996094 64.714844 L 271.640625 84.207031 L 250.730469 45.210938 Z M 287.085938 25.71875 " clip-rule="nonzero"/></clipPath><clipPath id="56d68a1e3d"><path d="M 289 53 L 304 53 L 304 69 L 289 69 Z M 289 53 " clip-rule="nonzero"/></clipPath><clipPath id="d7d1de5265"><path d="M 287.085938 25.71875 L 307.996094 64.714844 L 271.640625 84.207031 L 250.730469 45.210938 Z M 287.085938 25.71875 " clip-rule="nonzero"/></clipPath><clipPath id="4d40e76d7d"><path d="M 287.085938 25.71875 L 307.996094 64.714844 L 271.640625 84.207031 L 250.730469 45.210938 Z M 287.085938 25.71875 " clip-rule="nonzero"/></clipPath><clipPath id="ca3dcb6631"><path d="M 299.925781 49.671875 L 307.839844 64.429688 L 293.105469 72.328125 L 285.191406 57.570312 Z M 299.925781 49.671875 " clip-rule="nonzero"/></clipPath><clipPath id="a395b4c213"><path d="M 79 31 L 114 31 L 114 65 L 79 65 Z M 79 31 " clip-rule="nonzero"/></clipPath><clipPath id="acf4b6e8f1"><path d="M 105.226562 17.578125 L 126.136719 56.574219 L 89.78125 76.066406 L 68.871094 37.066406 Z M 105.226562 17.578125 " clip-rule="nonzero"/></clipPath><clipPath id="cbc6789767"><path d="M 105.226562 17.578125 L 126.136719 56.574219 L 89.78125 76.066406 L 68.871094 37.066406 Z M 105.226562 17.578125 " clip-rule="nonzero"/></clipPath><clipPath id="65e0c72bf7"><path d="M 104.128906 22.15625 L 122.144531 55.757812 L 88.59375 73.746094 L 70.578125 40.144531 Z M 104.128906 22.15625 " clip-rule="nonzero"/></clipPath><clipPath id="4cf27374af"><path d="M 75 32 L 86 32 L 86 42 L 75 42 Z M 75 32 " clip-rule="nonzero"/></clipPath><clipPath id="9bc6f4cd85"><path d="M 105.226562 17.578125 L 126.136719 56.574219 L 89.78125 76.066406 L 68.871094 37.066406 Z M 105.226562 17.578125 " clip-rule="nonzero"/></clipPath><clipPath id="384eef457e"><path d="M 105.226562 17.578125 L 126.136719 56.574219 L 89.78125 76.066406 L 68.871094 37.066406 Z M 105.226562 17.578125 " clip-rule="nonzero"/></clipPath><clipPath id="e0a246d1a1"><path d="M 107 45 L 123 45 L 123 61 L 107 61 Z M 107 45 " clip-rule="nonzero"/></clipPath><clipPath id="1820af6dca"><path d="M 105.226562 17.578125 L 126.136719 56.574219 L 89.78125 76.066406 L 68.871094 37.066406 Z M 105.226562 17.578125 " clip-rule="nonzero"/></clipPath><clipPath id="b70cfba9a4"><path d="M 105.226562 17.578125 L 126.136719 56.574219 L 89.78125 76.066406 L 68.871094 37.066406 Z M 105.226562 17.578125 " clip-rule="nonzero"/></clipPath><clipPath id="e5ed29309a"><path d="M 118.0625 41.527344 L 125.976562 56.289062 L 111.246094 64.1875 L 103.332031 49.429688 Z M 118.0625 41.527344 " clip-rule="nonzero"/></clipPath></defs><path fill="#efecec" d="M 231.28125 105.710938 C 233.777344 107.070312 236.511719 104.960938 235.152344 105.230469 C 234.035156 105.386719 232.898438 105.210938 231.878906 104.722656 C 232.371094 102.839844 232.652344 100.910156 232.714844 98.96875 C 232.238281 94.261719 230.398438 105.140625 231.28125 105.710938 Z M 238.457031 107.832031 C 236.960938 109.328125 235.109375 110.417969 236.648438 110.253906 C 238.710938 110.042969 240.101562 107.996094 239.351562 106.917969 C 238.753906 107.308594 239.144531 107.128906 238.457031 107.832031 Z M 236.722656 97.578125 C 236.273438 98.117188 236.722656 99.328125 236.828125 99.863281 C 236.859375 100.011719 236.945312 100.140625 237.070312 100.226562 C 237.191406 100.3125 237.34375 100.351562 237.492188 100.328125 C 237.640625 100.308594 237.777344 100.230469 237.875 100.117188 C 237.96875 100 238.015625 99.851562 238.007812 99.699219 C 237.84375 98.355469 237.515625 96.652344 236.722656 97.578125 Z M 228.382812 100.328125 C 227.890625 96.890625 226.886719 98.371094 226.976562 98.9375 C 227.097656 101.238281 228.546875 101.496094 228.382812 100.328125 Z M 235.824219 95.203125 C 244.015625 95.992188 235.554688 92.464844 235.109375 95.082031 Z M 184.171875 156.691406 C 182.464844 157.289062 182.808594 159.097656 184.917969 158.304688 C 189.226562 156.574219 193.753906 155.445312 198.371094 154.941406 C 198.371094 167.078125 197.757812 171.789062 198.460938 172.117188 C 199.222656 171.816406 199.847656 155.539062 199.804688 154.179688 C 199.667969 151.667969 186.84375 155.734375 184.171875 156.691406 Z M 169.703125 173.492188 C 167.503906 178.199219 163.617188 184.625 168.386719 186.257812 C 171.0625 187.152344 182.390625 186.257812 180.222656 180.171875 C 178.3125 174.730469 172.242188 168.1875 169.703125 173.492188 Z M 244.914062 205.042969 C 242.894531 204.460938 225.199219 201.128906 224.332031 201.980469 C 222.449219 203.878906 232.894531 202.800781 244.585938 206.195312 C 244.738281 206.238281 244.898438 206.21875 245.039062 206.140625 C 245.179688 206.066406 245.28125 205.9375 245.324219 205.785156 C 245.367188 205.632812 245.347656 205.46875 245.273438 205.328125 C 245.195312 205.191406 245.066406 205.085938 244.914062 205.042969 Z M 246.570312 196.417969 C 241.449219 195.195312 236.234375 194.386719 230.984375 194 C 230.824219 194.019531 230.679688 194.101562 230.582031 194.226562 C 230.484375 194.351562 230.4375 194.511719 230.460938 194.671875 C 230.480469 194.828125 230.5625 194.972656 230.6875 195.070312 C 230.8125 195.171875 230.972656 195.214844 231.132812 195.195312 C 236.222656 195.601562 241.273438 196.394531 246.242188 197.570312 C 246.394531 197.613281 246.558594 197.59375 246.699219 197.519531 C 246.835938 197.441406 246.941406 197.3125 246.984375 197.160156 C 247.027344 197.007812 247.007812 196.84375 246.929688 196.703125 C 246.855469 196.566406 246.722656 196.464844 246.570312 196.417969 Z M 130.125 110.777344 C 128.226562 110.984375 127.640625 110.445312 127.476562 110.867188 C 127.074219 113.628906 134.308594 110.65625 130.125 110.777344 Z M 123.847656 99.519531 C 123.847656 95.800781 122.648438 96.90625 122.648438 99.519531 C 122.648438 99.679688 122.714844 99.832031 122.824219 99.945312 C 122.9375 100.054688 123.089844 100.117188 123.25 100.117188 C 123.40625 100.117188 123.558594 100.054688 123.671875 99.945312 C 123.785156 99.832031 123.847656 99.679688 123.847656 99.519531 Z M 134.441406 98.117188 C 134.457031 98.195312 134.484375 98.269531 134.523438 98.335938 C 134.566406 98.402344 134.621094 98.460938 134.683594 98.503906 C 134.75 98.550781 134.820312 98.582031 134.898438 98.601562 C 134.972656 98.621094 135.054688 98.621094 135.128906 98.609375 C 135.207031 98.597656 135.28125 98.570312 135.347656 98.527344 C 135.417969 98.484375 135.472656 98.433594 135.519531 98.367188 C 135.566406 98.304688 135.597656 98.230469 135.617188 98.15625 C 135.632812 98.078125 135.636719 98 135.625 97.921875 C 135.070312 94.320312 134.007812 95.394531 134.441406 98.117188 Z M 134.441406 98.117188 " fill-opacity="1" fill-rule="nonzero"/><g clip-path="url(#94e3ef015b)"><path fill="#efecec" d="M 301.230469 240.40625 C 312.394531 231.859375 312.023438 216.132812 311.695312 215.625 C 315.984375 211.140625 316.101562 198.136719 314.863281 195.464844 C 313.1875 191.832031 320.660156 159.816406 308.464844 150.890625 C 309.542969 150.414062 311.589844 149.1875 311.738281 147.589844 C 312.007812 144.4375 309.035156 143.925781 306.761719 142.582031 C 297.269531 137.007812 296.671875 124.644531 278.078125 120.074219 C 277.390625 118.800781 277.242188 118.578125 276.6875 117.652344 C 290.140625 118.578125 288.40625 111.210938 286.089844 109.386719 C 284.632812 108.542969 283.070312 107.894531 281.441406 107.457031 C 287.105469 105.082031 286.941406 97.953125 279.648438 98.609375 C 278.78125 98.683594 281.589844 96.382812 279.304688 93.4375 C 278.789062 92.644531 278.066406 92.007812 277.210938 91.605469 C 276.355469 91.199219 275.402344 91.042969 274.460938 91.152344 C 274.460938 86.144531 272.054688 84.113281 269.199219 84.113281 C 273.402344 77.953125 267.796875 71.09375 259.933594 74.90625 C 261.800781 70.570312 256.824219 62.769531 245.421875 71.808594 C 244.703125 68.671875 234.777344 65.398438 233.703125 69.988281 C 233.148438 72.332031 229.21875 65.773438 222.042969 71.152344 C 220.085938 72.648438 219.054688 75.113281 221.355469 75.890625 C 214.226562 76.414062 211.492188 83.050781 217.023438 84.484375 C 218.21875 84.800781 214.75 85.605469 215.304688 90.058594 C 215.722656 93.46875 218.742188 95.425781 221.207031 93.558594 C 222.03125 92.945312 221.789062 92.808594 221.714844 93.453125 C 221.695312 93.707031 221.726562 93.957031 221.804688 94.199219 C 221.886719 94.4375 222.011719 94.660156 222.179688 94.851562 C 222.347656 95.039062 222.550781 95.195312 222.78125 95.304688 C 223.007812 95.414062 223.257812 95.472656 223.507812 95.484375 C 223.734375 96.796875 224.082031 98.082031 224.539062 99.328125 C 219.128906 99.328125 215.917969 103.992188 217.351562 106.261719 C 219.011719 108.863281 221.925781 107.128906 218.277344 109.011719 C 211.207031 112.675781 212.988281 118.742188 217.320312 118.699219 C 221.65625 118.652344 218.816406 117.054688 219.488281 121.386719 C 219.90625 124.242188 224.539062 127.039062 228.457031 123.449219 C 229.5625 124.78125 229.785156 125.632812 231.132812 126.320312 C 219.90625 133.792969 223.824219 137.425781 209.265625 152.101562 C 207.578125 153.820312 207.082031 153.179688 206.277344 153.972656 C 205.46875 154.765625 206.574219 159.515625 210.761719 159.171875 C 206.171875 172.625 210.761719 168.484375 204.125 169.1875 C 203.972656 169.1875 205.871094 149.5625 205.617188 146.855469 C 205.46875 145.527344 205.199219 145.554688 190.195312 148.980469 C 190.6875 138.964844 190.582031 118.265625 189.714844 118.054688 C 189.566406 118.054688 178.757812 118.054688 178.757812 117.769531 C 178.519531 116.816406 179.222656 112.703125 179.027344 111.925781 C 178.847656 111.417969 178.25 111.433594 177.773438 111.121094 C 171.972656 107.261719 179.269531 109.371094 179.820312 108.804688 C 180.628906 107.90625 179.820312 98.863281 181.316406 98.863281 C 182.808594 99.65625 181.613281 107.21875 182.183594 107.9375 C 184.019531 109.550781 182.765625 101.015625 184.753906 101.253906 C 185.84375 101.464844 184.605469 107.621094 185.023438 108.640625 C 186.382812 110.582031 185.902344 105.648438 187.519531 104.050781 C 189.402344 103.136719 187.429688 117.503906 187.21875 117.800781 C 187.980469 118.398438 191.328125 100.375 186.933594 103.214844 C 185.648438 104.050781 186.933594 102.855469 185.992188 100.867188 C 185.46875 99.835938 183.976562 99.671875 183.140625 101.136719 C 182.347656 95.902344 179.730469 97.175781 179.328125 100.851562 C 178.9375 107.785156 179.101562 106.742188 178.984375 107.980469 C 175.023438 106.488281 172.0625 110 177.878906 112.015625 C 178.789062 112.332031 177.878906 115.648438 178.160156 117.546875 C 178.160156 117.859375 178.324219 117.757812 177.550781 117.679688 C 174.351562 117.351562 164.785156 144.71875 161.839844 148.652344 C 165.921875 154.628906 164.558594 155.511719 164.1875 154.523438 C 160.136719 146.15625 143.261719 128.621094 124.503906 122.285156 C 123.007812 121.804688 123.367188 122.285156 123.007812 120.34375 C 121.917969 118.742188 137.867188 126.949219 136.460938 102.882812 C 143.203125 103.109375 142.214844 92.554688 136.582031 92.257812 C 140.300781 87.699219 139.136719 83.945312 135.386719 79.957031 C 133.726562 68 120.871094 67.730469 109.4375 72.09375 C 106.730469 73.125 106.253906 74.738281 104.863281 77.132812 C 103.519531 77.339844 102.90625 76.371094 100.304688 77.863281 C 92.398438 82.421875 94.328125 95.304688 100.875 100.507812 C 99.691406 103.929688 100.722656 107.726562 105.179688 107.414062 C 105.179688 121.730469 106.476562 118.414062 99.664062 119.59375 C 51.085938 128.007812 37.515625 186.898438 58.574219 206.449219 C 59.742188 207.539062 54.628906 214.847656 63.746094 220.035156 C 64.039062 226.675781 65.621094 233.191406 68.410156 239.226562 C 70.488281 243.710938 70.5625 242.738281 70.351562 243.398438 C 61.472656 271.644531 44.554688 322.074219 44.285156 323.269531 C 43.3125 327.589844 47.558594 328.847656 49.515625 325.527344 C 50.382812 324.03125 74.3125 259.316406 77.390625 250.886719 C 78.785156 251.992188 80.238281 253.027344 81.742188 253.980469 C 81.097656 265.472656 77.421875 315.257812 78.078125 318.128906 C 78.203125 318.828125 78.554688 319.464844 79.082031 319.941406 C 79.605469 320.414062 80.277344 320.703125 80.984375 320.753906 C 81.691406 320.804688 82.394531 320.617188 82.984375 320.222656 C 83.574219 319.832031 84.015625 319.25 84.238281 318.578125 C 84.460938 317.832031 89.246094 284.933594 92.144531 259.195312 C 109.332031 266.203125 128.808594 267.058594 132.320312 267.101562 C 135.308594 326.753906 134.863281 323.167969 141.167969 321.34375 C 142.273438 321.015625 142.304688 321.34375 142.484375 314.273438 C 145.472656 316.84375 158.625 327.171875 162.617188 327.949219 C 163.8125 328.171875 164.917969 325.78125 163.351562 323.015625 C 154.230469 306.980469 153.230469 314.378906 161.617188 303.78125 C 162.558594 306.066406 166.203125 315.363281 167.59375 315.589844 C 171.105469 315.976562 169.761719 323.613281 171.914062 323.6875 C 175.742188 323.839844 195.574219 322.464844 197.128906 320.265625 C 197.785156 319.355469 196.367188 317.398438 194.542969 316.574219 C 174.753906 309.355469 182.808594 322.808594 181.300781 280.433594 C 181.300781 279.359375 189.835938 269.476562 193.902344 256.921875 C 196.15625 249.941406 193.902344 246.925781 195.019531 243.472656 C 197.488281 235.324219 193.125 237.03125 202.105469 236.566406 C 204.019531 240.273438 205.4375 238.0625 206.484375 242.542969 C 207.546875 247.34375 209.761719 251.8125 212.941406 255.5625 C 213.523438 248.71875 215.035156 241.988281 217.425781 235.550781 C 218.921875 235.414062 217.230469 233.964844 213.824219 256.476562 C 213.957031 256.625 213.390625 297.488281 215.167969 298.324219 C 216.566406 298.773438 218.019531 299.023438 219.488281 299.074219 C 219.128906 299.355469 219.371094 309.207031 219.203125 309.207031 C 219.203125 309.578125 207.097656 313.511719 205.753906 319.59375 C 205.574219 320.925781 205.542969 321.476562 206.933594 321.476562 C 211.550781 321.222656 227.082031 317.351562 228.097656 317.351562 C 228.097656 319.011719 227.84375 319.144531 229.414062 319.128906 C 230.742188 319.128906 232.402344 319.128906 232.835938 318.519531 C 233.238281 317.515625 232.3125 301.480469 232.550781 299.609375 C 232.550781 299.460938 232.296875 299.609375 235.945312 299.609375 C 236.09375 320.9375 236.257812 318.921875 237.753906 319.355469 C 244.136719 320.445312 242.96875 321.851562 245.226562 284.453125 C 250.996094 289.6875 248.425781 289.746094 255.6875 285.082031 C 256.675781 286.324219 261.667969 292.226562 261.667969 292.273438 C 259.277344 296.933594 255.121094 305.902344 258.769531 309.804688 C 259.800781 310.6875 261.011719 309.070312 271.277344 295.515625 C 275.3125 290.164062 273.207031 295.246094 275.613281 293.183594 C 279.960938 289.460938 278.601562 291.6875 266.644531 277.789062 C 273.65625 272.722656 272.894531 274.15625 267.347656 268.925781 C 237.125 240.332031 248.035156 260.121094 286.316406 247.460938 C 287.242188 257.085938 294.265625 316.769531 295.6875 317.800781 C 296.65625 318.503906 299.871094 318.097656 300.871094 317.652344 C 302.589844 316.875 300.453125 295.46875 297.316406 256.699219 C 309.945312 291.195312 322.558594 324.199219 322.558594 324.347656 C 324.234375 327.890625 328.402344 327.1875 328.179688 323.675781 C 328.136719 323.734375 305.519531 254.246094 301.230469 240.40625 Z M 274.777344 292.390625 C 274.074219 291.660156 273.910156 291.105469 273.28125 291.316406 C 272.101562 291.914062 260.90625 307.757812 259.292969 308.773438 C 255.972656 303.871094 262.832031 292.75 262.488281 292.0625 C 262.28125 291.777344 266.703125 290.566406 271.695312 284.84375 C 277.40625 291.449219 277.316406 290.296875 274.761719 292.390625 Z M 271.085938 284.050781 C 268.621094 287.148438 265.574219 289.734375 262.117188 291.660156 C 257.632812 286.695312 257.019531 285.964844 256.136719 284.886719 C 268.4375 277.101562 264.582031 276.429688 271.070312 284.050781 Z M 311.261719 216.539062 C 311.007812 228.03125 306.6875 235.371094 300.976562 239.601562 C 295.613281 222.308594 297.046875 227.554688 297.808594 221.886719 C 312.753906 217.867188 311.277344 214.878906 311.246094 216.539062 Z M 313.546875 193.460938 C 310.421875 189.976562 305.609375 188.976562 301.140625 187.945312 C 304.863281 186.046875 309.242188 183.683594 310.347656 180.726562 C 311.84375 175.824219 309.558594 164.03125 308.628906 161.160156 C 304.789062 149.128906 302.277344 152.957031 307.136719 151.414062 C 316.96875 158.050781 314.5625 178.425781 313.53125 193.460938 Z M 255.089844 193.699219 C 246.394531 194.699219 251.101562 196.777344 249.113281 197.945312 C 247.707031 198.75 247.230469 200.441406 249.5 200.933594 C 251.175781 201.308594 250.996094 200.933594 250.21875 201.425781 C 248.546875 202.429688 248.113281 204.847656 254.375 204.222656 C 253.65625 205.597656 250.054688 212.515625 249.066406 213.742188 C 248.710938 214.191406 224.210938 212.667969 208.039062 210.753906 C 208.175781 210.605469 223.898438 190.800781 227.710938 187.40625 C 228.066406 187.242188 254.613281 190.394531 254.761719 190.394531 C 254.46875 191.5 254.578125 192.671875 255.078125 193.699219 Z M 250.503906 203.101562 C 249.382812 201.605469 256.914062 201.949219 255.210938 200.320312 C 255.0625 200.230469 240.683594 199.527344 255.808594 197.855469 C 255.945312 197.824219 256.066406 197.742188 256.152344 197.628906 C 256.234375 197.515625 256.273438 197.375 256.261719 197.234375 C 256.246094 197.09375 256.183594 196.960938 256.082031 196.863281 C 255.980469 196.765625 255.84375 196.710938 255.703125 196.703125 C 253.015625 196.777344 251.339844 197.273438 250.800781 196.703125 C 249.921875 194.984375 254.988281 195 255.839844 194.6875 C 257.332031 194.28125 254.628906 191.695312 256.0625 190.203125 C 256.808594 189.53125 258.976562 193.820312 259.292969 194.101562 C 263.640625 196.988281 280.84375 170.503906 291.351562 169.515625 C 293.953125 169.261719 286.867188 168.949219 283.96875 171.742188 C 277.988281 154.824219 278.140625 155.421875 278.183594 154.765625 C 278.378906 152.164062 281.308594 151.058594 283.832031 151.476562 C 286.359375 151.894531 286.898438 153.539062 289.617188 153.554688 C 291.007812 153.558594 292.386719 153.285156 293.671875 152.75 C 294.957031 152.214844 296.117188 151.425781 297.089844 150.429688 C 299.015625 151.230469 301.0625 151.691406 303.144531 151.789062 C 306.523438 159.023438 307.703125 159.726562 308.988281 167.960938 C 309.660156 172.25 311.035156 179.515625 308.015625 182.308594 C 301.664062 188.199219 259.097656 206.046875 250.488281 203.101562 Z M 258.46875 190.800781 C 261.457031 191.1875 261.011719 190.800781 260.425781 192.101562 C 259.636719 193.757812 260.1875 193.234375 258.453125 190.800781 Z M 226.5 112.253906 C 218.683594 109.835938 226.859375 100.65625 226.5 103.570312 C 226.5 103.722656 226.066406 103.855469 225.945312 103.929688 C 224.449219 104.78125 222.566406 111.402344 229.203125 111.671875 C 232.792969 111.835938 228.816406 112.988281 226.5 112.253906 Z M 226.859375 103.289062 C 224.617188 97.308594 224.527344 98.25 224.03125 95.515625 C 227.023438 95.171875 230.25 95.410156 228.308594 94.289062 C 227.246094 93.675781 226.199219 94.394531 226.679688 93.992188 C 231.164062 89.730469 229.5625 85.457031 230.460938 87.773438 C 230.890625 88.796875 231.574219 89.695312 232.445312 90.386719 C 233.316406 91.074219 234.351562 91.53125 235.445312 91.714844 C 236.542969 91.898438 237.667969 91.804688 238.714844 91.433594 C 239.765625 91.066406 240.703125 90.441406 241.445312 89.613281 C 242.699219 92.945312 244.105469 94.679688 248.066406 95.066406 C 250.710938 95.320312 250.292969 94.992188 251.296875 93.992188 C 255.136719 90.148438 258.769531 97.726562 254.105469 99.96875 C 252.402344 100.566406 254.835938 108.25 259.394531 106.292969 C 262.804688 104.796875 261.878906 97.726562 258.082031 97.445312 C 256.675781 97.339844 257.394531 96.980469 257.617188 96.949219 C 262.550781 96.25 264.640625 104.765625 260.277344 107.1875 C 256.273438 109.414062 251.472656 104.765625 253.269531 100.121094 C 250.054688 100.550781 250.070312 104.753906 251.773438 107.519531 C 251.984375 107.847656 245.0625 108.117188 245.707031 113.167969 C 246.136719 115.351562 248.695312 115.84375 250.890625 115.796875 C 246.214844 126.710938 252.175781 128.234375 257.347656 123.046875 C 257.773438 124.425781 258.390625 125.738281 259.171875 126.949219 C 261.609375 130.042969 235.453125 137.769531 236.214844 125.722656 C 237.6875 124.894531 239.089844 123.9375 240.398438 122.867188 C 240.59375 121.375 240.558594 119.863281 240.292969 118.382812 C 239.621094 114.484375 233.121094 120 226.796875 103.257812 Z M 245.375 154.660156 C 242.386719 152.355469 237.902344 135.109375 237.035156 130.96875 C 248.441406 137.695312 258.722656 128.863281 258.140625 130.132812 C 256.390625 133.808594 247.140625 152.042969 245.316406 154.628906 Z M 246.527344 164.835938 C 241.070312 165.449219 239.667969 158.113281 243.851562 156.316406 C 252.011719 153.300781 254.402344 163.925781 246.527344 164.835938 Z M 233.433594 127.066406 C 233.433594 127.066406 234.777344 126.378906 235.691406 125.871094 C 235.542969 129.265625 237.140625 129.878906 233.433594 127.039062 Z M 207.367188 156.78125 C 205.335938 153.703125 207.996094 155.539062 214.644531 148.082031 C 219.832031 142.285156 225.257812 129.832031 231.851562 127.15625 C 232.222656 127.484375 234.226562 129.054688 236.140625 130.386719 C 237.261719 137.636719 241.070312 151.3125 243.882812 154.839844 C 244.015625 155.003906 237.230469 157.183594 241.863281 164.285156 C 249.996094 170.800781 256.660156 156.8125 247.542969 154.941406 C 245.40625 154.523438 246.585938 157.425781 256.839844 134.585938 C 259.828125 127.859375 258.261719 130.101562 260.769531 128.21875 C 262.9375 129.398438 268.960938 129.804688 268.960938 123.347656 C 274.042969 127.546875 280.425781 125.945312 278.75 121.460938 C 293.996094 125.601562 295.835938 134.675781 302.816406 141.074219 C 307.300781 145.226562 310.917969 144.78125 310.558594 147.441406 C 310.558594 148.742188 306.222656 152.089844 299.496094 150.203125 C 297.195312 149.5625 296.941406 149.085938 296.507812 149.621094 C 295.507812 150.703125 294.261719 151.535156 292.878906 152.039062 C 291.492188 152.542969 290.003906 152.707031 288.542969 152.523438 C 287.269531 152.191406 286.554688 151.429688 284.761719 150.789062 C 282.324219 150.085938 278.78125 150.789062 277.691406 153.328125 C 274.164062 139.128906 275.136719 137.246094 274.328125 136.4375 C 271.1875 139.636719 281.636719 168.15625 283.054688 172.492188 C 280.515625 173.984375 273.9375 180.515625 271.863281 182.59375 C 271.339844 183.117188 260.472656 180.636719 224.375 180.457031 C 227.484375 174.253906 232.671875 170.308594 232.941406 169.5625 C 233.03125 169.066406 226.859375 162.863281 227.992188 156.019531 C 229.710938 145.554688 234.195312 139.789062 232.296875 141.507812 C 228.710938 147.097656 225.914062 153.359375 227.304688 159.964844 C 226.664062 160.425781 225.925781 160.726562 225.144531 160.84375 C 224.363281 160.960938 223.570312 160.890625 222.820312 160.636719 C 219.832031 159.515625 219.113281 154.972656 211.164062 158.246094 C 210.457031 158.441406 209.707031 158.402344 209.023438 158.140625 C 208.339844 157.875 207.761719 157.398438 207.367188 156.78125 Z M 211.6875 159.082031 C 214.40625 158.621094 216.5 157.589844 218.308594 158.710938 C 219.804688 159.636719 222.644531 163.910156 227.425781 161.21875 C 228.742188 163.148438 228.277344 166.0625 231.59375 169.410156 C 217.621094 183.222656 226.109375 187.167969 202.390625 186.824219 C 202.75 183.160156 203.570312 174.402344 203.972656 169.695312 C 211.296875 168.828125 206.558594 173.714844 211.6875 159.082031 Z M 204.363281 147.261719 C 204.363281 154.105469 201.238281 187.363281 200.476562 194.164062 C 193.40625 196.523438 146.984375 209.574219 130.886719 212.097656 C 131.214844 202.429688 134.054688 173.910156 136.65625 164.582031 C 144.667969 160.636719 196.605469 148.394531 204.363281 147.261719 Z M 98.242188 197.046875 C 102.726562 194.058594 125.234375 189.140625 132.125 187.554688 C 132.125 187.914062 131.871094 189.738281 131.828125 190.097656 C 95.761719 197.464844 102.980469 199.09375 98.289062 197.046875 Z M 138.597656 129.921875 C 130.078125 149.726562 129.628906 143.882812 137.269531 146.257812 C 138.058594 146.511719 126.296875 171.371094 126.253906 172.191406 C 124.445312 207.914062 125.144531 164.539062 128.671875 128.847656 C 129.167969 123.929688 127.195312 122.988281 138.613281 129.921875 Z M 128.914062 181.667969 C 128.914062 181.824219 128.851562 181.976562 128.738281 182.089844 C 128.625 182.203125 128.472656 182.265625 128.316406 182.265625 C 128.15625 182.265625 128.003906 182.203125 127.890625 182.089844 C 127.78125 181.976562 127.71875 181.824219 127.71875 181.667969 C 127.703125 178.289062 128.914062 176.527344 128.914062 181.667969 Z M 123.367188 122.449219 C 130.199219 124.796875 128.585938 122.761719 127.523438 133.703125 C 127.523438 133.390625 126.132812 132.566406 122.933594 129.308594 C 124.371094 128.007812 123.742188 124.347656 123.367188 122.449219 Z M 123.546875 137.636719 C 124.5625 137.382812 124.714844 134.644531 124.800781 132.761719 C 128.179688 135.902344 127.464844 133.570312 126.714844 142.371094 C 124.714844 137.125 124.726562 137.441406 124.457031 137.320312 C 124.085938 138.070312 122.097656 138.996094 121.066406 138.171875 C 120.960938 139.234375 121.53125 151.476562 121.617188 154.929688 C 97.179688 112.046875 113.234375 144.09375 117.941406 135.421875 C 122.292969 138.144531 120.753906 138.335938 123.578125 137.636719 Z M 136.625 93.09375 C 141.109375 93.003906 141.796875 101.523438 136.820312 101.71875 C 131.84375 101.914062 131.722656 93.183594 136.625 93.09375 Z M 132.335938 87.28125 C 132.695312 88.460938 133.351562 90.867188 133.832031 93.0625 C 131.453125 95.050781 132.933594 96.652344 131.167969 96.921875 C 130.839844 96.082031 130.839844 95.605469 130.394531 96.082031 C 130.394531 97.324219 130.796875 96.980469 129.121094 97.292969 C 126.296875 97.800781 128.40625 97.503906 126.6875 95.53125 C 126.078125 94.765625 125.269531 94.183594 124.351562 93.84375 C 123.433594 93.507812 122.441406 93.429688 121.484375 93.617188 C 120.523438 93.804688 119.636719 94.253906 118.914062 94.910156 C 118.191406 95.570312 117.664062 96.414062 117.390625 97.355469 C 116.089844 97.355469 112.066406 97.203125 111.410156 97.101562 C 110.515625 94.453125 108.898438 85.023438 108.882812 84.902344 C 120.078125 91.839844 129.480469 89.703125 132.335938 87.28125 Z M 126.953125 100.730469 C 126.027344 103.511719 120.09375 104.511719 118.601562 100.058594 C 116.222656 93.09375 129.808594 92.03125 126.925781 100.730469 Z M 102.726562 106.277344 C 100.785156 105.277344 100.289062 99.253906 103.699219 98.804688 C 105.910156 98.535156 107.089844 100.984375 107.972656 101.390625 C 110.246094 102.40625 111.648438 100.984375 111.648438 98.476562 L 117.210938 98.476562 C 116.894531 106.246094 129.167969 105.949219 127.867188 98.609375 C 131.601562 98.445312 129.914062 96.054688 131.738281 104.140625 C 130.542969 104.722656 128.507812 104.992188 128.417969 105.320312 C 128.839844 105.976562 132.902344 105.605469 132.902344 104.019531 C 132.441406 101.316406 132.097656 99.6875 131.855469 98.789062 C 132.125 99.625 132.566406 100.398438 133.148438 101.054688 C 133.726562 101.714844 134.4375 102.246094 135.234375 102.617188 C 135.324219 103.765625 135.339844 104.632812 135.371094 106.15625 C 135.832031 124.421875 121.917969 117.488281 121.738281 119.609375 C 121.738281 120.355469 123.515625 127.082031 122.261719 128.261719 C 118.554688 127.367188 106.597656 119.757812 106.222656 118.773438 C 106.210938 101.597656 106.179688 108.039062 102.726562 106.277344 Z M 119.796875 128.695312 C 118.699219 131.402344 117.394531 134.023438 115.894531 136.527344 C 105.957031 129.878906 104.820312 125.976562 101.410156 120 C 109.4375 118.621094 101.394531 120.132812 119.796875 128.710938 Z M 100.363281 120.445312 C 128.285156 168.273438 125.429688 159.921875 124.890625 167.675781 C 121.214844 165.40625 101.410156 152.941406 98.976562 150.96875 C 99.558594 149.234375 105.417969 143.882812 105.746094 142.894531 C 106.074219 141.910156 87.972656 123.914062 88.035156 123.898438 C 92.023438 122.429688 96.121094 121.28125 100.289062 120.460938 Z M 78.796875 187.707031 C 81.234375 188.289062 80.664062 188.691406 81.1875 187.839844 C 87.660156 177.378906 90.605469 157.769531 90.890625 157.527344 C 91.757812 158.589844 89.542969 176.300781 82.128906 187.421875 C 80.726562 189.53125 80.710938 187.421875 84.789062 192.21875 C 96.464844 189.363281 116.65625 187.257812 132.425781 185.597656 C 132.425781 185.988281 132.304688 186.613281 132.261719 187.09375 C 122.023438 189.140625 90.277344 194.265625 96.851562 200.664062 C 98.914062 202.414062 129.285156 214.117188 130.765625 212.621094 C 146.175781 210.648438 197.429688 196.761719 201.195312 195.195312 C 201.597656 194.925781 201.554688 195.554688 202.300781 187.886719 C 211.148438 188.183594 214.257812 189.378906 219.804688 185.328125 C 221.410156 184.164062 222.859375 182.792969 224.105469 181.25 C 238.828125 181.429688 256.289062 182.011719 270.964844 183.671875 C 256.226562 198.75 264.6875 190.636719 260.800781 190.113281 C 254.269531 189.214844 227.457031 186.75 227.621094 187.003906 C 227.203125 186.421875 207.832031 208.71875 206.695312 210.785156 C 205.558594 212.847656 248.8125 215.714844 249.742188 214.742188 C 250.667969 213.773438 254.925781 205.597656 255.71875 204.148438 C 263.3125 203.160156 273.65625 201.726562 299.738281 188.738281 C 322.304688 194.386719 315.175781 204.894531 304.222656 209.003906 C 300.394531 210.5 263.671875 221.109375 214.183594 224.804688 C 123.695312 231.542969 69.367188 212.847656 72.296875 212.847656 C 73.027344 212.847656 73.355469 211.890625 74.628906 209.527344 C 81.023438 215.164062 97.257812 220.125 93.234375 214.921875 C 94.066406 215.046875 94.914062 215.046875 95.746094 214.921875 C 97.332031 214.566406 97.4375 213.054688 96.164062 211.933594 C 95.523438 211.382812 95.433594 211.558594 96 211.515625 C 98.480469 211.335938 98.632812 209.40625 96.703125 208.316406 C 94.101562 206.824219 89.527344 206.988281 88.214844 204.59375 C 87.257812 202.863281 90.664062 201.113281 89.484375 199.214844 C 88.660156 197.898438 87.347656 198.4375 86.0625 199.304688 C 83.460938 201.113281 84.402344 201.261719 82.535156 199.542969 C 85.941406 197.167969 87.019531 198.332031 86.464844 196.644531 C 85.824219 194.777344 84.753906 193.089844 83.332031 191.714844 C 81.914062 190.34375 80.191406 189.328125 78.304688 188.753906 C 65.882812 186.210938 61.488281 194.730469 61.101562 194.730469 C 60.261719 192.472656 67.828125 185.136719 78.722656 187.675781 Z M 87.945312 205.878906 C 89.722656 208.109375 97.046875 208.527344 96.914062 210.140625 C 96.285156 211.84375 88.019531 207.6875 88.394531 209.886719 C 88.632812 210.542969 89.109375 210.199219 92.039062 211.214844 C 97.792969 213.234375 97.480469 215.328125 88.8125 212.398438 C 87.210938 211.859375 86.988281 212.398438 87.242188 212.980469 C 87.496094 213.5625 92.863281 214.714844 92.5625 215.96875 C 92.25 216.941406 79.695312 213.28125 74.925781 209.050781 C 76.667969 205.519531 79.140625 202.394531 82.175781 199.886719 C 83.386719 201.066406 83.894531 201.605469 84.191406 201.5 C 84.492188 201.398438 88.796875 197.628906 88.960938 200.007812 C 88.992188 201.621094 85.539062 202.953125 87.871094 205.851562 Z M 64.390625 220.378906 C 77.558594 227.65625 78.019531 219.199219 70.800781 242.214844 C 66.960938 235.535156 64.738281 228.046875 64.3125 220.347656 Z M 48.382812 325.109375 C 47.84375 326.15625 45.390625 326.949219 46.019531 323.613281 C 48.753906 309.476562 67.585938 259.34375 76.300781 225.175781 C 79.589844 226.207031 81.800781 226.820312 85.105469 227.671875 C 82.636719 234.535156 48.992188 324.167969 48.382812 325.109375 Z M 83.625 315.320312 C 82.953125 319.804688 79.5 320.058594 79.140625 315.230469 C 78.722656 308.816406 80.84375 292.03125 82.28125 254.351562 C 85.21875 256.128906 88.285156 257.683594 91.457031 259 C 90.875 263.558594 85.597656 302.210938 83.625 315.320312 Z M 140.988281 320.160156 C 135.847656 322.136719 136.894531 324.046875 133.144531 267.101562 C 133.84375 267.101562 138.121094 267.175781 141.917969 266.847656 C 141.484375 294.183594 141.574219 316.394531 140.988281 320.160156 Z M 77.691406 250.109375 C 84.253906 232.171875 77.226562 242.796875 95.761719 251.78125 C 112.203125 259.75 127.03125 260.75 145.339844 260.496094 C 146.207031 262.945312 146.832031 264.785156 146.96875 264.980469 C 129.421875 268.207031 94.371094 263.484375 77.691406 250.109375 Z M 142.558594 311.164062 C 143.441406 259.464844 140.347656 267.355469 147.371094 266.144531 C 150.167969 273.871094 151.542969 277.535156 152.511719 280.148438 C 142.859375 306.292969 143.1875 304.992188 144.144531 305.558594 C 145.503906 306.457031 145.191406 305.199219 142.558594 311.164062 Z M 161.0625 302.644531 C 159.191406 305.105469 157.195312 307.46875 155.085938 309.730469 C 151.609375 308.324219 148.25 306.664062 145.023438 304.753906 C 144.890625 304.664062 151.421875 285.21875 152.796875 280.835938 C 160.226562 300.851562 161.226562 302.433594 161.0625 302.644531 Z M 179.625 311.761719 C 178.878906 311.984375 170.839844 313.914062 167.832031 314.40625 C 130.617188 237.71875 164.5 265.605469 119.300781 258.269531 C 108.839844 256.550781 94.507812 252.171875 86.34375 244.441406 C 80.066406 238.464844 81.234375 240.707031 85.6875 227.851562 C 88.078125 228.332031 120.84375 237.253906 173.691406 237.253906 C 181.332031 256.847656 180.71875 305.335938 179.625 311.761719 Z M 181.121094 278.164062 C 180.390625 267.175781 179.730469 250.554688 174.859375 237.238281 C 191.972656 237.328125 189.941406 236.640625 190.640625 237.523438 C 199.746094 248.925781 189.386719 266.472656 181.136719 278.164062 Z M 193.902344 242.785156 C 191.792969 235.59375 188.160156 237.328125 194.855469 236.96875 C 194.691406 238.929688 194.375 240.871094 193.914062 242.785156 Z M 205.691406 238.777344 C 201.957031 236.074219 203.945312 236.582031 205.542969 236.492188 C 205.664062 238.882812 205.871094 238.898438 205.707031 238.777344 Z M 231.640625 317.996094 C 228.546875 317.996094 229.144531 318.710938 229.070312 316.964844 C 228.964844 314.796875 212.074219 320.445312 206.648438 320.445312 C 207.15625 315.960938 215.617188 311.957031 219.742188 310.148438 C 219.742188 310.148438 220.683594 310.148438 223.867188 310.492188 C 234.179688 311.582031 231.65625 307.007812 231.65625 317.996094 Z M 219.683594 299.238281 C 226.707031 299.835938 231.925781 299.550781 231.910156 299.699219 C 231.65625 301.570312 231.910156 309.339844 231.609375 309.402344 C 227.761719 310.128906 223.804688 310.09375 219.96875 309.296875 C 219.742188 298.683594 219.863281 299.863281 219.683594 299.238281 Z M 63.027344 218.195312 C 60.636719 216.703125 58.679688 215.371094 59.816406 207.882812 C 79.574219 224.625 195.828125 240.363281 301.15625 211.039062 C 313.113281 207.703125 314.878906 201.578125 314.863281 202.070312 C 314.472656 215.6875 310.5 217.777344 298.511719 220.992188 C 198.578125 247.730469 86.867188 233.769531 63.027344 218.195312 Z M 237.46875 318.160156 C 237.082031 315.664062 236.960938 302.585938 236.929688 299.65625 C 240.070312 299.566406 239.128906 302.167969 240.789062 280.824219 C 240.890625 280.914062 242.28125 255.921875 243.195312 249.136719 C 243.3125 248.195312 243.703125 247.96875 243.671875 249.136719 C 243.671875 249.882812 243.671875 250.871094 243.597656 252.125 C 242.355469 286.847656 240.609375 280.523438 244.046875 283.511719 C 241.445312 320.011719 242.640625 320.132812 237.46875 318.160156 Z M 248.589844 251.421875 C 248.230469 251.421875 248.84375 251.886719 243.898438 247.371094 C 247.109375 246.9375 275.285156 246.773438 289.589844 235.640625 C 290.796875 239.03125 290.515625 238.238281 292.683594 244.203125 C 279.933594 249.570312 262.027344 252.050781 248.589844 251.421875 Z M 296.3125 316.886719 C 296.089844 316.621094 288.226562 260.226562 286.761719 247.386719 C 294.746094 244.847656 292.113281 242.664062 296.238281 253.964844 C 300.140625 313.839844 302.726562 320.101562 296.3125 316.886719 Z M 323.921875 324.480469 C 323.546875 323.824219 288.765625 231.8125 286.40625 224.789062 C 289.394531 224.070312 293.207031 223.113281 295.476562 222.515625 C 303.816406 256.894531 324.457031 311.105469 326.339844 323.644531 C 326.804688 326.695312 325.027344 326.527344 323.921875 324.480469 Z M 323.921875 324.480469 " fill-opacity="1" fill-rule="nonzero"/></g><g clip-path="url(#f8a9669ae9)"><g clip-path="url(#4614310257)"><g clip-path="url(#b64a4e44d5)"><g clip-path="url(#aa9edb53bf)"><path fill="#efecec" d="M 294.949219 47.097656 C 278.746094 55.222656 278.203125 55.058594 269.207031 39.324219 C 277.332031 55.523438 277.167969 56.070312 261.433594 65.066406 C 277.636719 56.941406 278.179688 57.105469 287.175781 72.835938 C 279.050781 56.636719 279.214844 56.09375 294.949219 47.097656 " fill-opacity="1" fill-rule="nonzero"/></g></g></g></g><g clip-path="url(#7f2819a679)"><g clip-path="url(#d83c759fa9)"><g clip-path="url(#d1ab150b29)"><path fill="#efecec" d="M 267.292969 42.550781 C 262.621094 44.894531 262.464844 44.847656 259.871094 40.308594 C 262.214844 44.980469 262.167969 45.136719 257.628906 47.734375 C 262.300781 45.390625 262.457031 45.4375 265.054688 49.972656 C 262.710938 45.300781 262.757812 45.144531 267.292969 42.550781 " fill-opacity="1" fill-rule="nonzero"/></g></g></g><g clip-path="url(#56d68a1e3d)"><g clip-path="url(#d7d1de5265)"><g clip-path="url(#4d40e76d7d)"><g clip-path="url(#ca3dcb6631)"><path fill="#efecec" d="M 289.21875 64.960938 C 296.316406 61.402344 296.554688 61.472656 300.496094 68.367188 C 296.9375 61.269531 297.007812 61.03125 303.902344 57.089844 C 296.804688 60.648438 296.566406 60.578125 292.625 53.683594 C 296.183594 60.78125 296.113281 61.019531 289.21875 64.960938 " fill-opacity="1" fill-rule="nonzero"/></g></g></g></g><g clip-path="url(#a395b4c213)"><g clip-path="url(#acf4b6e8f1)"><g clip-path="url(#cbc6789767)"><g clip-path="url(#65e0c72bf7)"><path fill="#efecec" d="M 113.085938 38.957031 C 96.886719 47.082031 96.34375 46.917969 87.347656 31.183594 C 95.472656 47.382812 95.308594 47.925781 79.574219 56.925781 C 95.777344 48.800781 96.320312 48.964844 105.316406 64.695312 C 97.191406 48.496094 97.355469 47.953125 113.085938 38.957031 " fill-opacity="1" fill-rule="nonzero"/></g></g></g></g><g clip-path="url(#4cf27374af)"><g clip-path="url(#9bc6f4cd85)"><g clip-path="url(#384eef457e)"><path fill="#efecec" d="M 85.433594 34.410156 C 80.761719 36.753906 80.605469 36.707031 78.011719 32.167969 C 80.355469 36.839844 80.308594 36.996094 75.769531 39.59375 C 80.441406 37.25 80.597656 37.296875 83.191406 41.832031 C 80.847656 37.160156 80.898438 37.003906 85.433594 34.410156 " fill-opacity="1" fill-rule="nonzero"/></g></g></g><g clip-path="url(#e0a246d1a1)"><g clip-path="url(#1820af6dca)"><g clip-path="url(#b70cfba9a4)"><g clip-path="url(#e5ed29309a)"><path fill="#efecec" d="M 107.359375 56.820312 C 114.457031 53.261719 114.695312 53.332031 118.636719 60.226562 C 115.078125 53.128906 115.148438 52.890625 122.042969 48.949219 C 114.941406 52.507812 114.707031 52.4375 110.761719 45.542969 C 114.324219 52.640625 114.25 52.878906 107.359375 56.820312 " fill-opacity="1" fill-rule="nonzero"/></g></g></g></g></svg>